<svg xmlns="http://www.w3.org/2000/svg" width="43" height="27" version="1.1" id="svg5"><style id="style2"/><path id="Shape 15" d="M4.5 2h35C40.88 2 42 3.13 42 4.53v12.63c0 1.39-1.12 2.52-2.5 2.52h-35c-1.38 0-2.5-1.13-2.5-2.52V4.53C2 3.13 3.12 2 4.5 2zm1.25 15.16L8.25 26l10-11.37-12.5 2.53z" fill="#fff"/><path d="M6.155 18.547a712.95 712.95 0 00-.353-1.25c-.019-.065-.028-.122-.021-.127.016-.012 12.416-2.519 12.422-2.511.003.003-.988 1.134-2.202 2.513l-2.207 2.508H6.475z" id="path844" fill="#fff" stroke-width=".031"/><path d="M8.205 25.8c-.31-1.08-1.716-6.076-1.726-6.128a73.973 73.973 0 00-.354-1.273 41.114 41.114 0 01-.333-1.212c.024-.026 12.336-2.51 12.354-2.493.005.005-.621.725-1.39 1.601l-2.228 2.539a3049.254 3049.254 0 01-6.203 7.06l-.072.075z" id="path846" fill="#fff" stroke-width=".031"/><path d="M8.22 25.86c-.036-.114-1.553-5.505-2.09-7.43a43.251 43.251 0 01-.338-1.243c.027-.028 12.335-2.512 12.354-2.493.008.008-.385.46-3.243 3.718-4.54 5.176-6.628 7.55-6.642 7.55a.343.343 0 01-.041-.102z" id="path848" fill="#fff" stroke-width=".031"/><path d="M8.198 25.79l-.907-3.204c-.47-1.658-.854-2.99-.855-2.958-.002.055-.05.057-1.15.044-1.055-.012-1.169-.019-1.395-.08-.73-.2-1.287-.66-1.613-1.334-.29-.597-.266.076-.266-7.437V4.196l.07-.266c.038-.146.136-.4.217-.563.126-.253.194-.343.462-.612.272-.273.353-.335.61-.461.164-.08.409-.174.545-.208.245-.062.38-.062 18.078-.062 17.5 0 17.835.001 18.08.06.79.19 1.43.748 1.733 1.508.183.462.174.067.174 7.275v6.641l-.07.266a2.54 2.54 0 01-1.805 1.82l-.25.07-13.01.008-13.01.008.057-.072c.031-.04 1.02-1.167 2.197-2.504a240.302 240.302 0 002.153-2.463c.006-.017-.015-.023-.047-.013s-1.54.316-3.351.682c-1.811.365-3.28.669-3.265.674.015.005 1.496-.287 3.29-.648a203.07 203.07 0 013.274-.644c.006.006-.646.763-1.45 1.68l-2.213 2.525a3595.43 3595.43 0 01-6.017 6.845l-.211.235zm-2.056-7.318c-.164-.582-.311-1.11-.328-1.173l-.03-.115.208-.047c.114-.026.748-.156 1.407-.29.66-.133 1.186-.247 1.17-.252-.033-.011-2.79.543-2.813.565-.007.008.137.55.322 1.204.185.654.342 1.184.349 1.178.006-.007-.122-.489-.285-1.07zm2.581-1.907a.12.12 0 00-.078 0c-.021.01-.004.016.04.016.042 0 .06-.007.038-.016zm.156-.03a.12.12 0 00-.078 0c-.021.008-.004.015.04.015.042 0 .06-.007.038-.016zm1.142-.22c.571-.113 1.033-.213 1.026-.22-.014-.014-2.088.395-2.11.416-.026.025.06.01 1.084-.195zm1.171-.25a.12.12 0 00-.078 0c-.022.01-.004.016.039.016s.06-.007.039-.016zm.156-.03a.12.12 0 00-.078 0c-.021.008-.004.015.04.015.042 0 .06-.007.038-.016zm.156-.032a.12.12 0 00-.078 0c-.021.009-.004.016.04.016.042 0 .06-.007.038-.016z" id="path850" fill="#fff" stroke-width=".031"/><path d="M8.235 25.93c-.01-.026-.384-1.348-.832-2.938-.449-1.59-.843-2.984-.877-3.098l-.061-.208-1.18-.014c-1.175-.013-1.18-.013-1.46-.098a2.448 2.448 0 01-1.55-1.316c-.287-.578-.263.1-.263-7.453V4.133l.088-.28c.152-.485.306-.742.66-1.098.273-.273.354-.335.612-.461a3.39 3.39 0 01.544-.208c.245-.062.38-.062 18.078-.062 17.822 0 17.83 0 18.096.064.993.237 1.74 1.083 1.875 2.123.024.188.031 2.171.025 6.813-.009 6.175-.012 6.557-.065 6.732-.143.476-.313.79-.596 1.1-.308.337-.65.552-1.145.719l-.265.09-13.044.007c-12.447.008-13.04.006-13.002-.046.148-.198-.447.473-2.739 3.083-3.024 3.446-2.877 3.283-2.9 3.22zm5.809-6.5a.543.543 0 00.106-.125.87.87 0 00-.138.125.543.543 0 00-.106.125.87.87 0 00.138-.125zm-7.682-.162c-.01-.025-.018-.018-.02.019 0 .033.007.051.017.04.01-.01.012-.037.003-.06zm7.916-.104c.058-.06.099-.11.09-.11a.682.682 0 00-.121.11c-.059.06-.1.11-.09.11.008 0 .063-.05.12-.11zm-7.979-.115c-.01-.025-.017-.017-.019.019-.001.033.006.051.017.04.01-.01.011-.036.002-.059zm8.198-.135c.058-.06.099-.11.09-.11a.682.682 0 00-.122.11c-.058.06-.099.11-.09.11.009 0 .063-.05.122-.11zm-8.26-.084c-.01-.025-.018-.017-.02.02 0 .032.007.05.017.04.01-.01.012-.037.003-.06zm-.04-.164c-.011-.045-.026-.077-.034-.07-.007.008-.004.051.008.097.011.046.027.078.034.07.007-.007.004-.05-.007-.097zm8.518-.002c.059-.06.1-.11.09-.11a.682.682 0 00-.12.11c-.06.06-.1.11-.091.11.008 0 .063-.05.121-.11zm-8.58-.216c-.011-.046-.027-.077-.034-.07-.008.007-.004.05.007.097.012.045.027.077.035.07.007-.008.004-.051-.008-.097zm8.924-.174c.124-.138.218-.25.21-.25-.009 0-.117.112-.241.25-.124.137-.218.25-.21.25.009 0 .117-.113.241-.25zm-8.986-.045c-.012-.046-.027-.077-.035-.07-.007.008-.004.051.008.097.011.046.027.077.034.07.007-.008.004-.051-.007-.097zm-.079-.28c-.02-.081-.042-.14-.05-.133a.464.464 0 00.024.158c.02.08.043.14.05.133a.464.464 0 00-.024-.159zm9.409-.066c.058-.06.099-.11.09-.11a.682.682 0 00-.121.11c-.059.06-.1.11-.09.11.008 0 .063-.05.12-.11zm-9.487-.216c-.011-.046-.027-.078-.034-.07-.007.007-.004.05.008.096.011.046.026.078.034.07.007-.007.004-.05-.008-.096zm9.706-.034c.058-.06.099-.11.09-.11a.682.682 0 00-.122.11c-.058.06-.099.11-.09.11.009 0 .063-.05.122-.11zm-9.784-.247c-.02-.08-.043-.14-.05-.133a.464.464 0 00.024.159c.02.08.042.14.05.132a.464.464 0 00-.024-.158zm11.132-1.288a111.12 111.12 0 001.242-1.426c.04-.056.04-.063.001-.049-.024.01-.732.155-1.573.324-.84.17-1.515.312-1.5.317.016.006.696-.124 1.51-.287a45.492 45.492 0 011.494-.286c.012.013-.494.6-1.66 1.925-.43.488-.766.878-.746.866.02-.012.574-.635 1.232-1.384zM6.146 17.102c.16-.03.284-.062.276-.07a1.826 1.826 0 00-.333.051 15.67 15.67 0 01-.331.066c-.006 0-.011.014-.011.032 0 .02.02.022.054.004a2.46 2.46 0 01.345-.083zm.421-.1a.12.12 0 00-.078 0c-.022.01-.004.017.039.017s.06-.007.039-.016zm.156-.03a.12.12 0 00-.078 0c-.021.008-.004.015.04.015.042 0 .06-.007.038-.015zm.156-.032a.12.12 0 00-.078 0c-.021.01-.004.016.04.016.042 0 .06-.007.038-.016zm.157-.03a.12.12 0 00-.078 0c-.022.008-.004.015.039.015s.06-.007.039-.016zm.156-.032a.12.12 0 00-.078 0c-.022.009-.004.016.039.016s.06-.007.039-.016zm.156-.031a.12.12 0 00-.078 0c-.021.008-.004.015.04.015.042 0 .06-.007.038-.015zm.156-.032a.12.12 0 00-.078 0c-.021.01-.004.016.04.016.042 0 .06-.007.038-.016zm.14-.029c-.01-.01-.037-.011-.06-.002-.024.01-.017.017.02.018.032.002.05-.006.04-.016zm.157-.031c-.01-.01-.038-.012-.06-.003-.025.01-.018.018.019.02.033 0 .051-.007.04-.017zm.156-.031c-.01-.01-.037-.012-.06-.003-.025.01-.017.017.019.019.033.001.051-.006.04-.017zm.156-.032c-.01-.01-.037-.011-.06-.002-.025.01-.017.017.02.019.032.001.05-.006.04-.017zm.141-.033a.12.12 0 00-.078 0c-.021.009-.004.016.04.016.042 0 .06-.007.038-.016zm.172-.03c-.01-.01-.038-.01-.06-.002-.025.01-.018.018.019.02.033 0 .051-.007.04-.017zm.625-.124c-.01-.01-.038-.012-.06-.003-.025.01-.018.018.019.02.033 0 .051-.007.04-.017zm.141-.033a.12.12 0 00-.078 0c-.022.008-.004.015.039.015s.06-.007.039-.015zm.156-.032a.12.12 0 00-.078 0c-.021.01-.004.016.04.016.042 0 .06-.007.038-.016zm.156-.03a.12.12 0 00-.078 0c-.021.008-.004.015.04.015.042 0 .06-.007.038-.016zm.157-.032a.12.12 0 00-.078 0c-.022.009-.004.016.039.016s.06-.007.039-.016zm.156-.031a.12.12 0 00-.078 0c-.022.008-.004.015.039.015s.06-.007.039-.015zm.14-.03c-.01-.01-.037-.011-.06-.002-.025.01-.017.017.019.019.033.001.051-.006.04-.017zm.141-.033a.12.12 0 00-.078 0c-.021.009-.004.016.04.016.042 0 .06-.007.038-.016zm.171-.03c-.01-.01-.037-.01-.06-.002-.024.01-.017.018.02.02.032 0 .05-.007.04-.017zm.157-.03c-.01-.01-.038-.012-.06-.003-.025.01-.018.017.019.019.033.001.051-.006.04-.017zm.156-.032c-.01-.01-.037-.011-.06-.002-.025.01-.017.017.019.019.033.001.051-.006.04-.017zm.156-.031c-.01-.01-.037-.011-.06-.002-.025.01-.017.017.02.018.032.002.05-.006.04-.016zm.156-.031c-.01-.01-.037-.012-.06-.003-.024.01-.017.018.02.02.032 0 .05-.007.04-.017zm1.063-.219c-.01-.01-.037-.011-.06-.002-.025.01-.017.017.019.018.033.002.051-.006.04-.016zm.156-.031c-.01-.01-.037-.012-.06-.003-.025.01-.017.018.02.02.032 0 .05-.007.04-.017zm.156-.031c-.01-.01-.037-.012-.06-.003-.024.01-.017.017.02.019.032.001.05-.006.04-.017zm.157-.032c-.01-.01-.038-.011-.06-.002-.025.01-.018.017.019.019.033.001.051-.006.04-.017zm.156-.031c-.01-.01-.037-.011-.06-.002-.025.01-.017.017.019.018.033.002.051-.006.04-.016zm.156-.031c-.01-.01-.037-.012-.06-.003-.025.01-.017.018.02.02.032 0 .05-.007.04-.017zm.156-.031c-.01-.01-.037-.012-.06-.003-.024.01-.017.017.02.019.032.001.05-.006.04-.017zm.157-.032c-.01-.01-.038-.011-.06-.002-.025.01-.018.017.019.019.033.001.051-.006.04-.017zm.156-.031c-.01-.01-.037-.011-.06-.002-.025.01-.017.017.019.018.033.002.051-.006.04-.016zm.156-.031c-.01-.01-.037-.012-.06-.003-.025.01-.017.018.02.02.032 0 .05-.007.04-.017zm.141-.033a.12.12 0 00-.078 0c-.021.008-.004.015.04.015.042 0 .06-.007.038-.015zm.157-.032a.12.12 0 00-.078 0c-.022.01-.004.016.039.016s.06-.007.039-.016zm.156-.03a.12.12 0 00-.078 0c-.022.008-.004.015.039.015s.06-.007.039-.016zm.156-.032a.12.12 0 00-.078 0c-.021.009-.004.016.04.016.042 0 .06-.007.038-.016zm.156-.031a.12.12 0 00-.078 0c-.021.008-.004.015.04.015.042 0 .06-.007.038-.015zm.157-.032a.12.12 0 00-.078 0c-.022.01-.004.016.039.016s.06-.007.039-.016zm.156-.03a.12.12 0 00-.078 0c-.022.008-.004.015.039.015s.06-.007.039-.016zm.156-.032a.12.12 0 00-.078 0c-.021.009-.004.016.04.016.042 0 .06-.007.038-.016zm.156-.031a.12.12 0 00-.078 0c-.021.008-.004.015.04.015.042 0 .06-.007.038-.015zm.157-.032a.12.12 0 00-.078 0c-.022.01-.004.016.039.016s.06-.007.039-.016zm.156-.03a.12.12 0 00-.078 0c-.022.008-.004.015.039.015s.06-.007.039-.016z" id="path852" fill="#fff" stroke-width=".031"/><path d="M8.234 25.93c-.01-.026-.39-1.366-.846-2.978-.455-1.612-.85-3.008-.878-3.102l-.049-.17-1.021-.001c-.562 0-1.127-.015-1.256-.031-.84-.11-1.537-.621-1.93-1.417-.26-.53-.242.063-.242-7.457V4.102l.09-.266c.163-.486.312-.732.66-1.082.284-.287.343-.332.64-.475.182-.087.434-.18.563-.207.214-.045 1.84-.05 18.141-.041l17.906.008.25.088a2.53 2.53 0 011.65 1.776l.069.261v6.688c0 6.29-.003 6.7-.055 6.887-.255.923-.812 1.514-1.733 1.84l-.243.085-13.057.008c-10.483.007-13.053 0-13.037-.03.026-.052.282-.34-2.69 3.039-3.036 3.452-2.909 3.31-2.932 3.249zm5.811-6.508l.092-.101-.101.091c-.095.086-.116.112-.092.112a.779.779 0 00.101-.102zm.233-.258c.04-.043.066-.078.058-.078a.37.37 0 00-.09.078c-.04.043-.066.078-.057.078a.37.37 0 00.089-.078zm.219-.25c.04-.043.066-.078.057-.078a.37.37 0 00-.089.078c-.04.043-.066.078-.057.078a.37.37 0 00.089-.078zm.218-.25c.04-.043.067-.078.058-.078a.37.37 0 00-.089.078c-.04.043-.066.078-.058.078a.37.37 0 00.09-.078zm.25-.281c.04-.043.067-.078.058-.078a.37.37 0 00-.089.078c-.04.043-.066.078-.058.078a.37.37 0 00.09-.078zm.188-.219c.04-.043.066-.078.058-.078a.37.37 0 00-.09.078c-.04.043-.066.078-.057.078a.37.37 0 00.089-.078zm.25-.281c.04-.043.066-.078.058-.078a.37.37 0 00-.09.078c-.04.043-.066.078-.057.078a.37.37 0 00.089-.078zm.219-.25c.04-.043.066-.078.057-.078a.37.37 0 00-.089.078c-.04.043-.066.078-.057.078a.37.37 0 00.089-.078zm.254-.289c.038-.05.037-.05-.012-.012-.052.041-.069.067-.043.067a.214.214 0 00.055-.055zM5.84 17.161c0-.007-.02-.012-.046-.012s-.047.013-.047.03.02.022.047.012c.025-.01.046-.023.046-.03zm10.237-.051l.092-.102-.102.092c-.095.085-.116.111-.092.111a.779.779 0 00.102-.101zm-10.104.018a.12.12 0 00-.078 0c-.021.009-.004.016.04.016.042 0 .06-.007.038-.016zm.156-.031a.12.12 0 00-.078 0c-.021.008-.004.015.04.015.042 0 .06-.007.038-.015zm.14-.03c-.01-.01-.037-.011-.06-.002-.024.01-.017.017.02.019.032.001.05-.006.04-.017zm10.026-.207l.092-.102-.101.092c-.095.085-.116.111-.092.111a.779.779 0 00.101-.101zm.22-.25l.091-.102-.102.092c-.094.085-.115.111-.091.111a.779.779 0 00.101-.101zm.232-.258c.058-.06.099-.11.09-.11a.682.682 0 00-.122.11c-.058.06-.099.11-.09.11.009 0 .063-.05.122-.11zm.218-.25c.059-.06.1-.11.09-.11a.682.682 0 00-.12.11c-.06.06-.1.11-.091.11.008 0 .063-.05.121-.11zm.22-.25c.057-.06.098-.11.09-.11a.682.682 0 00-.122.11c-.058.06-.1.11-.09.11.008 0 .063-.05.121-.11zm.218-.25c.058-.06.099-.11.09-.11a.682.682 0 00-.121.11c-.059.06-.1.11-.09.11.008 0 .063-.05.12-.11zm.343-.39c.107-.121.188-.22.18-.22a2.57 2.57 0 00-.23.241c-.118.132-.199.231-.18.22.02-.013.124-.121.23-.242zm-2.383.012c-.01-.01-.037-.012-.06-.003-.025.01-.017.017.02.019.032.001.05-.006.04-.017zm.156-.032c-.01-.01-.037-.011-.06-.002-.024.01-.017.017.02.019.032.001.05-.006.04-.017zm.157-.031c-.01-.01-.038-.011-.06-.002-.025.01-.018.017.019.018.033.002.051-.006.04-.016zm.156-.031c-.01-.01-.037-.012-.06-.003-.025.01-.017.018.019.02.033 0 .051-.007.04-.017zm.172-.033a.12.12 0 00-.078 0c-.021.008-.004.015.04.015.042 0 .06-.007.038-.015zm.14-.03c-.01-.01-.037-.011-.06-.002-.024.01-.017.017.02.019.032.001.05-.006.04-.017zm.157-.031c-.01-.01-.038-.011-.06-.002-.025.01-.018.017.019.018.033.002.051-.006.04-.016zm.976-.184c.47-.094.861-.166.868-.16.007.008-.034.069-.091.137-.057.068-.038.052.044-.034.081-.087.145-.16.14-.163a79.901 79.901 0 00-1.835.37c-.175.052.137-.002.874-.15z" id="path854" fill="#fff" stroke-width=".031"/><path d="M8.232 25.928a580.1 580.1 0 01-.795-2.795c-.428-1.512-.823-2.907-.879-3.099l-.1-.348-1.176-.014c-1.327-.016-1.371-.022-1.863-.258a2.538 2.538 0 01-1.174-1.195c-.247-.504-.228.079-.24-7.349-.01-6.627-.01-6.638.055-6.89.035-.14.136-.4.223-.58.141-.292.191-.359.475-.642.341-.342.591-.497 1.036-.646l.218-.073h36.032l.234.09c.838.318 1.39.91 1.631 1.754l.072.25v6.719c0 6.428-.002 6.727-.057 6.922-.248.873-.817 1.471-1.724 1.809l-.219.081-13.093.016-13.094.016-2.68 3.045a556.79 556.79 0 01-2.772 3.14c-.07.07-.097.081-.11.047zm5.8-6.49c.039-.05.038-.051-.012-.012-.03.023-.055.048-.055.055 0 .025.026.009.067-.043zm.25-.282c.039-.05.038-.05-.012-.011a.201.201 0 00-.055.054c0 .026.026.01.067-.043zm.219-.25c.038-.05.037-.05-.012-.011-.052.04-.069.066-.043.066a.197.197 0 00.055-.055zm.218-.25c.04-.05.038-.05-.011-.011-.052.04-.069.066-.043.066a.2.2 0 00.054-.055zm.25-.28c.04-.05.038-.051-.011-.013a.214.214 0 00-.055.055c0 .026.026.01.066-.043zm.188-.22c.039-.05.038-.05-.012-.011a.201.201 0 00-.055.054c0 .026.026.01.067-.043zm.25-.28c.039-.05.038-.051-.012-.013-.052.041-.069.067-.043.067.007 0 .031-.025.055-.055zm.219-.25c.038-.05.037-.051-.012-.013-.052.041-.069.067-.043.067a.214.214 0 00.055-.055zm-9.794-.465c-.01-.01-.037-.011-.06-.002-.025.01-.017.017.019.018.033.002.051-.006.04-.016zm10.231-.036c.039-.05.038-.05-.012-.012-.052.041-.068.067-.043.067.007 0 .032-.025.055-.055zm.219-.25c.039-.05.038-.05-.012-.012-.052.041-.069.067-.043.067.007 0 .031-.025.055-.055zm.219-.25c.038-.05.037-.05-.012-.012-.052.041-.069.067-.043.067a.214.214 0 00.055-.055zm.246-.273c.04-.043.066-.078.057-.078a.37.37 0 00-.089.078c-.04.043-.066.078-.057.078a.37.37 0 00.089-.078zm.218-.25c.04-.043.067-.078.058-.078a.37.37 0 00-.089.078c-.04.043-.066.078-.058.078a.37.37 0 00.09-.078zm.22-.25c.04-.043.065-.078.057-.078a.37.37 0 00-.09.078c-.04.043-.065.078-.057.078a.37.37 0 00.09-.078zm.218-.25c.04-.043.066-.078.058-.078a.37.37 0 00-.09.078c-.04.043-.066.078-.057.078a.37.37 0 00.089-.078zm.25-.281c.04-.043.066-.079.058-.079a.37.37 0 00-.09.079c-.04.042-.066.078-.057.078a.37.37 0 00.089-.078zm.187-.22c.04-.042.067-.077.058-.077a.37.37 0 00-.089.078c-.04.043-.066.078-.058.078a.37.37 0 00.09-.078zm-1.227-.127c-.01-.01-.037-.012-.06-.003-.025.01-.017.017.02.019.032.001.05-.006.04-.017zm.156-.032c-.01-.01-.037-.011-.06-.002-.024.01-.017.017.02.019.032.001.05-.006.04-.017zm.157-.031c-.01-.01-.038-.011-.06-.002-.025.01-.018.017.019.018.033.002.051-.006.04-.016zm.156-.031c-.01-.01-.037-.012-.06-.003-.025.01-.017.018.019.02.033 0 .051-.007.04-.017zm.156-.031c-.01-.01-.037-.012-.06-.003-.025.01-.017.017.02.019.032.001.05-.006.04-.017zm.141-.034a.12.12 0 00-.078 0c-.021.01-.004.016.04.016.042 0 .06-.007.038-.016zm.446-.073c.36-.074.337-.072.308-.023-.013.022.001.02.034-.008.092-.074.01-.072-.39.012-.197.042-.335.077-.307.079a3.11 3.11 0 00.355-.06z" id="path856" fill="#fff" stroke-width=".031"/><path d="M8.24 25.943c-.012-.02-1.634-5.719-1.766-6.205-.013-.047-.132-.053-1.207-.067-1.313-.016-1.346-.02-1.797-.228-.481-.222-.832-.544-1.124-1.034-.202-.339-.277-.58-.318-1.026-.02-.219-.031-2.678-.031-6.753 0-6.325 0-6.412.063-6.656a3.72 3.72 0 01.22-.57c.132-.27.203-.37.426-.603.4-.413.844-.664 1.322-.745.147-.025 5.18-.032 18.125-.026l17.922.01.244.098c.778.316 1.298.861 1.561 1.636l.101.297v6.75c0 7.54.02 6.88-.218 7.382-.323.684-.824 1.118-1.602 1.387l-.258.09H13.811l-2.618 2.975c-2.925 3.324-2.929 3.329-2.953 3.288zm8.51-9.599c.04-.05.038-.05-.011-.012-.052.041-.069.067-.043.067a.214.214 0 00.055-.055zm.22-.25c.038-.05.037-.05-.012-.012-.03.024-.055.048-.055.055 0 .026.026.009.066-.043zm.218-.25c.039-.05.038-.05-.012-.012-.052.041-.068.067-.043.067.007 0 .032-.025.055-.055zm.219-.25c.039-.05.038-.05-.012-.012-.052.041-.069.067-.043.067.007 0 .031-.025.055-.055zm.25-.281c.039-.05.038-.051-.012-.012-.052.04-.069.066-.043.066.007 0 .031-.024.055-.054zm.187-.219c.04-.05.038-.05-.011-.012-.052.041-.069.067-.043.067.006 0 .03-.025.054-.055zm-.137-.34c-.01-.01-.037-.01-.06-.002-.025.01-.017.018.019.02.033 0 .051-.007.04-.017zm.156-.03c-.01-.01-.037-.012-.06-.003-.025.01-.017.017.02.019.032.001.05-.006.04-.017zm.173-.034a.12.12 0 00-.078 0c-.022.01-.004.016.039.016s.06-.007.039-.016zm.164-.01c.01-.018-.013-.031-.053-.03-.058 0-.063.006-.025.03.058.037.055.037.078 0z" id="path858" fill="#fff" stroke-width=".031"/><path d="M8.23 25.923c-.01-.025-.41-1.428-.89-3.118-.479-1.69-.888-3.083-.909-3.096-.02-.012-.56-.03-1.197-.037-1.278-.016-1.329-.022-1.76-.226-.537-.253-.904-.606-1.194-1.147-.154-.288-.21-.488-.251-.896-.021-.211-.032-2.558-.032-6.753 0-7.33-.028-6.614.284-7.248.26-.53.738-.98 1.28-1.207.434-.183-.941-.17 18.514-.17H39.98l.258.09c.409.142.707.328 1.007.629.284.285.421.489.563.836.205.505.191-.045.181 7.334-.01 7.567.019 6.789-.278 7.384-.309.619-.8 1.03-1.553 1.3l-.229.082H13.814l-1.931 2.195c-2.717 3.088-3.525 4.002-3.584 4.05-.044.037-.054.036-.07-.002zm9.954-11.243c0-.017-.015-.031-.033-.031-.018 0-.024.014-.014.03.01.018.026.032.033.032.008 0 .014-.014.014-.031z" id="path860" fill="#fff" stroke-width=".031"/><path d="M8.233 25.93c-.01-.026-.41-1.423-.889-3.104-.479-1.681-.887-3.073-.907-3.094-.027-.026-.371-.042-1.2-.055-1.309-.022-1.343-.027-1.818-.26a2.492 2.492 0 01-1.155-1.152c-.271-.541-.248.116-.26-7.374-.008-5.887-.003-6.672.039-6.855a2.605 2.605 0 011.69-1.909l.248-.088h36.094l.25.101c.706.286 1.205.766 1.48 1.423.207.5.194-.037.184 7.343-.01 7.583.018 6.828-.28 7.41-.138.27-.206.36-.46.614-.322.32-.615.5-1.09.669l-.229.08H13.816l-2.605 2.961c-2.958 3.362-2.952 3.355-2.978 3.29zm9.951-11.25c0-.017-.015-.031-.033-.031-.018 0-.024.014-.014.03.01.018.026.032.033.032.008 0 .014-.014.014-.031z" id="path862" fill="#fff" stroke-width=".031"/><path d="M8.229 25.92c-.01-.024-.41-1.42-.89-3.102-.48-1.681-.888-3.071-.906-3.089-.02-.02-.468-.04-1.195-.053-1.282-.022-1.34-.03-1.77-.232-.565-.267-.94-.645-1.25-1.26-.216-.426-.201.066-.213-7.285-.01-6.055-.006-6.662.04-6.875.087-.396.295-.815.572-1.15.27-.325.811-.671 1.239-.791.133-.037 2.836-.044 18.203-.044h18.047l.26.115c.36.159.572.292.807.506.364.332.637.794.761 1.287.063.249.064.306.055 6.953-.01 7.524.012 6.841-.246 7.354-.16.318-.213.393-.448.64-.313.329-.663.545-1.151.71l-.22.076H13.817l-2.012 2.288c-2.45 2.787-3.48 3.948-3.526 3.976-.018.012-.042 0-.051-.024z" id="path864" fill="#fff" stroke-width=".031"/><path d="M8.238 25.941a227.05 227.05 0 01-.817-2.825c-.722-2.532-.977-3.4-.996-3.407l-1.178-.03c-.68-.015-1.238-.042-1.328-.063-.22-.051-.643-.253-.87-.416-.494-.353-.905-.98-.997-1.52-.031-.185-.04-1.648-.04-6.922 0-6.443.002-6.694.059-6.875.099-.317.291-.687.485-.931.338-.425.894-.783 1.373-.882.193-.04 2.465-.046 18.199-.039l17.978.008.26.115c.36.159.572.292.807.506.364.332.637.794.761 1.287.063.249.064.305.054 6.953-.01 7.18-.003 6.833-.156 7.193-.167.39-.535.86-.865 1.101a3.578 3.578 0 01-.802.406l-.223.08h-26.12l-.406.46-2.592 2.946c-2.396 2.722-2.558 2.9-2.586 2.855z" id="path866" fill="#fff" stroke-width=".031"/><path d="M8.238 25.942c-.01-.017-.356-1.211-.77-2.654-.808-2.824-1.017-3.539-1.042-3.564a23.343 23.343 0 00-1.2-.044c-1.34-.031-1.348-.032-1.846-.283-.522-.262-.892-.65-1.163-1.22a2.11 2.11 0 01-.165-.497c-.031-.185-.04-1.651-.04-6.938V4.04l.088-.25c.18-.512.47-.93.859-1.24.281-.223.675-.418.97-.48.193-.04 2.467-.045 18.214-.038l17.994.008.308.148c.664.32 1.045.695 1.333 1.316.235.507.219-.05.218 7.261 0 7.223.007 6.965-.187 7.38a2.796 2.796 0 01-.602.838c-.28.266-.511.409-.924.572l-.317.126H13.824l-1.312 1.491c-4.091 4.65-4.243 4.82-4.274 4.77z" id="path868" fill="#fff" stroke-width=".031"/><path d="M8.24 25.943c-.01-.016-.351-1.189-.758-2.607-.712-2.48-1.038-3.594-1.058-3.615a38.277 38.277 0 00-1.195-.039c-1.352-.033-1.381-.037-1.868-.292-.499-.26-.859-.635-1.129-1.175-.234-.469-.216.117-.227-7.33-.01-6.62-.01-6.687.053-6.934a2.703 2.703 0 01.91-1.41c.279-.218.669-.41.955-.47.186-.04 2.575-.046 18.192-.047h17.978l.33.155c.68.321 1.063.694 1.355 1.324.235.507.219-.05.218 7.261 0 7.223.007 6.965-.187 7.38a2.798 2.798 0 01-.605.84 2.69 2.69 0 01-.948.585l-.288.11-13.072.001H13.825l-1.422 1.617c-3.89 4.423-4.134 4.695-4.164 4.646z" id="path870" fill="#fff" stroke-width=".031"/><path d="M7.499 23.406c-.853-2.975-1.045-3.626-1.084-3.664-.015-.015-.555-.041-1.2-.058-1.33-.035-1.364-.04-1.846-.288a2.543 2.543 0 01-.887-.76c-.2-.279-.38-.673-.428-.933-.034-.184-.042-1.471-.042-6.96V4.007l.1-.26c.275-.711.684-1.178 1.307-1.49a2.6 2.6 0 01.5-.187c.191-.04 2.444-.046 18.203-.046h17.984l.32.153c.69.332 1.047.681 1.354 1.324.234.49.219-.046.209 7.428-.01 6.212-.014 6.717-.063 6.899-.112.409-.378.832-.736 1.17a2.697 2.697 0 01-.934.57l-.288.11-13.072.002H13.825l-1.281 1.458C8.903 25.28 8.297 25.96 8.252 25.96c-.012 0-.35-1.15-.753-2.555z" id="path872" fill="#fff" stroke-width=".031"/><path d="M7.624 23.844c-.949-3.305-1.178-4.075-1.225-4.105a1.06 1.06 0 00-.293-.029 86.087 86.087 0 01-1.156-.03c-1.037-.032-1.117-.046-1.58-.284-.497-.255-.866-.639-1.138-1.181-.234-.469-.216.122-.227-7.368l-.01-6.724.094-.292a2.66 2.66 0 011.62-1.71l.21-.082 18.096-.008 18.096-.008.319.156c.669.327 1.02.66 1.302 1.232.29.587.267-.08.256 7.519-.008 5.093-.02 6.74-.048 6.86-.097.4-.396.877-.766 1.221-.278.258-.47.378-.877.544l-.306.125H26.908l-13.083.002-1.156 1.317c-3.33 3.792-4.371 4.962-4.417 4.962-.012 0-.294-.953-.628-2.117z" id="path874" fill="#fff" stroke-width=".031"/><path d="M7.47 23.32c-1.019-3.54-1.028-3.569-1.11-3.589a19.004 19.004 0 00-.988-.035c-1.424-.03-1.61-.063-2.134-.366-.535-.31-1.07-1.02-1.183-1.573-.029-.142-.04-1.786-.049-6.929l-.011-6.742.081-.241c.293-.873.919-1.503 1.744-1.756l.214-.065h36.092l.412.208c.376.191.438.235.712.508.27.27.317.335.476.659.114.23.195.443.225.593.041.206.046 1.059.037 6.938-.008 5.093-.02 6.74-.048 6.86-.096.398-.39.869-.762 1.218-.274.258-.486.39-.89.552l-.297.12-13.083.001-13.083.001-1.031 1.176c-3.12 3.558-4.496 5.103-4.542 5.103-.012 0-.363-1.189-.782-2.642z" id="path876" fill="#fff" stroke-width=".031"/><path d="M7.72 24.188c-1.326-4.593-1.27-4.41-1.36-4.444-.037-.014-.488-.035-1.004-.047-1.414-.033-1.6-.065-2.117-.364-.447-.26-.946-.861-1.117-1.347a2.836 2.836 0 01-.094-.531c-.02-.222-.03-2.785-.031-6.875V4.06l.081-.229c.312-.874.88-1.45 1.706-1.73l.224-.076h36.116l.35.174c.432.216.583.325.865.628.269.288.538.798.612 1.16.041.199.046 1.086.038 6.953-.011 7.427.006 6.846-.21 7.272a2.782 2.782 0 01-.6.797c-.27.254-.474.382-.877.55l-.29.12-13.093.002-13.094.003-1.594 1.816c-3.054 3.48-3.93 4.462-3.979 4.462-.012 0-.251-.798-.533-1.773z" id="path878" fill="#fff" stroke-width=".031"/><path d="M7.75 24.297c-.747-2.587-1.213-4.18-1.278-4.366-.052-.15-.072-.174-.16-.192-.054-.011-.51-.03-1.012-.042a20.862 20.862 0 01-1.175-.052c-.7-.082-1.39-.56-1.798-1.242-.201-.338-.259-.518-.298-.93-.021-.221-.032-2.625-.032-6.877V4.059l.081-.229c.313-.877.904-1.472 1.728-1.74l.201-.066h36.116l.345.17c.409.202.574.319.827.584.24.252.293.33.464.674.259.52.24-.07.23 7.494-.011 7.421.006 6.84-.21 7.265-.165.324-.32.53-.585.781-.284.269-.482.395-.892.565l-.29.121-13.093.003-13.094.002-1.016 1.16c-2.93 3.348-4.507 5.118-4.557 5.118-.012 0-.237-.749-.502-1.664z" id="path880" fill="#fff" stroke-width=".031"/><path d="M8.133 25.625l-.771-2.664c-.812-2.803-.908-3.118-.969-3.18-.04-.039-.249-.054-1.198-.088-1.211-.043-1.327-.058-1.681-.214a2.808 2.808 0 01-1.204-1.097 1.888 1.888 0 01-.282-.884c-.018-.178-.03-2.996-.03-6.867l-.001-6.565.073-.217c.163-.479.422-.89.75-1.189.235-.214.447-.347.807-.506l.26-.115L22 2.031l18.113-.008.215.098c.363.164.632.336.859.55.272.257.4.431.574.78.257.517.239-.067.228 7.495-.011 7.425.006 6.853-.21 7.27a2.67 2.67 0 01-.586.78c-.264.252-.485.391-.91.573l-.26.11h-26.18l-.355.4c-.196.218-.973 1.1-1.728 1.96-2.57 2.927-3.46 3.922-3.512 3.922-.01 0-.062-.151-.116-.336z" id="path882" fill="#fff" stroke-width=".031"/><path d="M7.765 24.36c-1.243-4.292-1.309-4.512-1.375-4.58-.03-.03-.335-.052-1.193-.084-1.215-.046-1.354-.065-1.696-.22a2.843 2.843 0 01-1.19-1.094 1.888 1.888 0 01-.283-.884c-.018-.178-.03-3-.03-6.877l-.001-6.574.077-.213c.274-.76.703-1.263 1.36-1.592.112-.056.28-.128.372-.16.164-.057.698-.058 18.242-.058H40.12l.268.123c.678.314 1.139.767 1.425 1.402.192.426.183.056.183 7.197 0 4.44-.011 6.626-.034 6.83-.042.377-.105.546-.335.9-.33.508-.751.848-1.381 1.115l-.172.073-13.124.016-13.125.016-1.745 1.984c-3.084 3.508-3.776 4.28-3.83 4.28-.011 0-.23-.72-.484-1.601z" id="path884" fill="#fff" stroke-width=".031"/><path d="M7.895 24.813l-.774-2.664c-.586-2.024-.687-2.342-.753-2.378-.03-.016-.566-.05-1.19-.074-1.216-.049-1.341-.066-1.71-.238a2.796 2.796 0 01-1.158-1.077 1.885 1.885 0 01-.282-.884c-.018-.178-.03-3.003-.03-6.885l-.001-6.582.078-.208c.099-.262.245-.555.37-.737.299-.439.807-.814 1.361-1.004.164-.057.698-.058 18.252-.058H40.14l.255.123c.692.335 1.136.774 1.428 1.413.18.394.173.08.173 7.186 0 6.586-.006 6.952-.113 7.255-.105.297-.334.63-.654.95-.298.299-.342.33-.72.516l-.404.197-13.132.008-13.131.008-1.821 2.07c-3.027 3.44-3.717 4.211-3.774 4.211-.01 0-.17-.517-.353-1.148z" id="path886" fill="#fff" stroke-width=".031"/><path d="M8.192 25.844c-.048-.182-1.27-4.379-1.498-5.148-.269-.905-.274-.916-.396-.938-.054-.01-.583-.038-1.176-.063-.593-.026-1.149-.062-1.235-.081-.784-.175-1.598-.973-1.82-1.785-.049-.181-.053-.7-.063-6.993l-.01-6.797.068-.187c.322-.892.9-1.48 1.742-1.77.167-.057.613-.058 18.26-.058h18.09l.257.129c.385.193.577.325.83.57.234.227.438.52.583.837.18.394.173.08.173 7.186 0 4.453-.011 6.626-.034 6.832-.06.536-.25.892-.731 1.372-.298.297-.344.33-.722.516l-.404.198-13.13.008-13.132.008-1.009 1.148c-3.758 4.276-4.524 5.133-4.588 5.133-.013 0-.038-.053-.055-.117z" id="path888" fill="#fff" stroke-width=".031"/><path d="M8.192 25.844c-.052-.193-1.308-4.503-1.514-5.195-.231-.775-.257-.839-.35-.874-.04-.015-.57-.05-1.178-.077-.609-.027-1.177-.065-1.263-.084a2.696 2.696 0 01-.807-.383 3.31 3.31 0 01-.673-.684 2.983 2.983 0 01-.353-.758c-.029-.118-.04-1.801-.049-6.953l-.01-6.797.067-.187c.3-.832.803-1.377 1.59-1.723l.204-.09 18.149-.008 18.149-.008.288.145c.382.192.528.292.784.54.249.24.42.48.57.795.212.447.2.022.2 7.266 0 4.32-.01 6.643-.032 6.818a1.713 1.713 0 01-.269.797 2.79 2.79 0 01-.462.566c-.3.298-.343.33-.737.523l-.418.207H13.847l-1.917 2.18c-2.962 3.364-3.622 4.1-3.68 4.1-.015 0-.042-.053-.06-.117z" id="path890" fill="#fff" stroke-width=".031"/><path d="M8.177 25.797C7.1 22.072 6.485 19.996 6.419 19.87c-.059-.114-.06-.114-1.375-.175-.55-.025-1.07-.061-1.157-.08a2.437 2.437 0 01-.385-.14c-.666-.305-1.23-.946-1.435-1.63-.05-.167-.055-.649-.064-6.977-.007-5.05 0-6.829.026-6.921.068-.237.225-.563.393-.818a2.691 2.691 0 011.268-1.01l.24-.095h36.224l.289.144c.381.192.527.292.783.54.242.234.4.45.561.771.222.442.21.003.21 7.29 0 4.187-.012 6.65-.032 6.826-.059.511-.26.883-.731 1.353-.295.294-.344.33-.732.524l-.416.208H13.85l-1.903 2.163C8.9 25.303 8.31 25.96 8.25 25.96c-.015 0-.048-.074-.074-.164z" id="path892" fill="#fff" stroke-width=".031"/></svg>