<?xml version="1.0" encoding="UTF-8" standalone="no"?>
<svg xmlns:dc="http://purl.org/dc/elements/1.1/" xmlns:cc="http://creativecommons.org/ns#"
  xmlns:rdf="http://www.w3.org/1999/02/22-rdf-syntax-ns#" xmlns:svg="http://www.w3.org/2000/svg"
  xmlns="http://www.w3.org/2000/svg" xmlns:sodipodi="http://sodipodi.sourceforge.net/DTD/sodipodi-0.dtd"
  xmlns:inkscape="http://www.inkscape.org/namespaces/inkscape" viewBox="0 0 43 27" width="43" height="27" version="1.1"
  id="svg5" sodipodi:docname="mind-bubble.svg" inkscape:version="0.92.5 (2060ec1f9f, 2020-04-08)">
  <metadata id="metadata11">
    <rdf:RDF>
      <cc:Work rdf:about="">
        <dc:format>image/svg+xml</dc:format>
        <dc:type rdf:resource="http://purl.org/dc/dcmitype/StillImage" />
      </cc:Work>
    </rdf:RDF>
  </metadata>
  <defs id="defs9" />
  <sodipodi:namedview pagecolor="#ffffff" bordercolor="#666666" borderopacity="1" objecttolerance="10"
    gridtolerance="10" guidetolerance="10" inkscape:pageopacity="0" inkscape:pageshadow="2" inkscape:window-width="1920"
    inkscape:window-height="1013" id="namedview7" showgrid="false" inkscape:zoom="16" inkscape:cx="8.3221361"
    inkscape:cy="7.2376858" inkscape:window-x="0" inkscape:window-y="0" inkscape:window-maximized="1"
    inkscape:current-layer="svg5" />
  <style id="style2">
    tspan {
      white-space: pre
    }

    .shp0 {
      fill: #ffffff
    }
  </style>
  <path id="Shape 15" class="shp0"
    d="M4.5 2L39.5 2C40.88 2 42 3.13 42 4.53L42 17.16C42 18.55 40.88 19.68 39.5 19.68L4.5 19.68C3.12 19.68 2 18.55 2 17.16L2 4.53C2 3.13 3.12 2 4.5 2ZM5.75 17.16L8.25 26L18.25 14.63L5.75 17.16Z"
    style="fill:#ffffff" />
  <path style="fill:#ffffff;stroke-width:0.03125"
    d="M 6.1554143,18.547084 C 5.9795251,17.924037 5.8203742,17.361447 5.8017457,17.296883 c -0.018628,-0.06456 -0.028101,-0.121731 -0.021051,-0.127038 0.016094,-0.01211 12.4166713,-2.518866 12.4225543,-2.511196 0.0024,0.0031 -0.988708,1.134138 -2.2024,2.513435 l -2.206713,2.507813 H 10.134675 6.475213 Z"
    id="path844" inkscape:connector-curvature="0" />
  <path style="fill:#ffffff;stroke-width:0.03125"
    d="M 8.2052351,25.800869 C 7.8956485,24.719193 6.4890902,19.724058 6.4793215,19.671602 6.4721693,19.633195 6.3128657,19.060365 6.1253136,18.398647 5.9377615,17.736928 5.7877994,17.191759 5.7920646,17.187161 c 0.024008,-0.02588 12.3357594,-2.510463 12.3538474,-2.493075 0.0048,0.0046 -0.621025,0.725163 -1.390625,1.601313 -0.7696,0.87615 -1.771929,2.018418 -2.227398,2.538372 -2.112939,2.41209 -6.1383656,6.994362 -6.2028014,7.060848 l -0.071813,0.0741 z"
    id="path846" inkscape:connector-curvature="0" />
  <path style="fill:#ffffff;stroke-width:0.03125"
    d="M 8.2195635,25.859584 C 8.1840118,25.746476 6.6670924,20.355112 6.1291397,18.429897 5.9394364,17.75099 5.7877198,17.191773 5.7919915,17.187191 c 0.026667,-0.0286 12.3347525,-2.512606 12.3540725,-2.493286 0.0084,0.0084 -0.385177,0.459519 -3.243175,3.717918 -4.540121,5.176185 -6.6278891,7.549324 -6.6415143,7.549324 -0.00544,0 -0.024254,-0.0457 -0.041811,-0.101563 z"
    id="path848" inkscape:connector-curvature="0" />
  <path style="fill:#ffffff;stroke-width:0.03125"
    d="M 8.1983328,25.789272 C 8.168249,25.686147 7.7597543,24.24474 7.2905668,22.586147 6.8213793,20.927553 6.4367428,19.596443 6.435819,19.628125 6.434209,19.683275 6.385175,19.685155 5.2857018,19.672265 4.2314672,19.659907 4.1170699,19.65328 3.891072,19.591479 3.160565,19.391714 2.6044882,18.932125 2.2776629,18.258022 1.9882408,17.661065 2.0122644,18.334299 2.0122644,10.820522 V 4.1955216 l 0.069598,-0.265625 C 2.120141,3.7838028 2.2179498,3.5306778 2.2992151,3.3673966 2.4252782,3.1141061 2.4930538,3.024226 2.7608673,2.7551801 3.0327881,2.4820081 3.1144643,2.4203273 3.3716393,2.2939333 3.5349206,2.2136854 3.7797482,2.1200422 3.9157007,2.0858373 c 0.2453449,-0.061727 0.380015,-0.062189 18.0781253,-0.061972 17.500541,2.149e-4 17.83557,0.00134 18.080938,0.060462 0.788294,0.1899559 1.429563,0.7481116 1.731772,1.5073252 0.18395,0.4621247 0.174478,0.067104 0.174478,7.2757445 v 6.640625 l -0.06975,0.265625 c -0.234843,0.894368 -0.901943,1.5671 -1.80525,1.820495 l -0.25,0.07013 -13.01034,0.0081 -13.01034,0.0081 0.05722,-0.07229 c 0.03147,-0.03976 1.020497,-1.166807 2.19784,-2.504553 1.177344,-1.337746 2.145805,-2.445904 2.152135,-2.462573 0.0063,-0.01667 -0.01476,-0.02259 -0.04687,-0.01315 -0.03211,0.0094 -1.540045,0.316241 -3.350963,0.681795 -1.810918,0.365553 -3.279986,0.668839 -3.264595,0.673969 0.01539,0.0051 1.495812,-0.286205 3.289827,-0.647412 1.794015,-0.361206 3.267283,-0.651302 3.273928,-0.644656 0.0066,0.0066 -0.646023,0.762919 -1.450375,1.680609 -0.804351,0.91769 -1.799957,2.053643 -2.212457,2.52434 -1.712936,1.954602 -5.820809,6.628543 -6.0166612,6.845761 l -0.2113319,0.23446 z M 6.1417597,18.471821 C 5.97837,17.890169 5.8310172,17.362355 5.814309,17.298902 l -0.030378,-0.11537 0.2079166,-0.04664 c 0.114354,-0.02565 0.7476606,-0.15593 1.4073478,-0.289507 0.6596872,-0.133577 1.1860887,-0.247314 1.1697809,-0.25275 -0.033129,-0.01104 -2.7905053,0.543014 -2.8126559,0.565165 -0.00774,0.0077 0.1371422,0.549576 0.3219512,1.20409 0.1848094,0.654513 0.3415394,1.184503 0.3482888,1.177753 0.00675,-0.0067 -0.1214113,-0.488169 -0.2848009,-1.069821 z M 8.7232018,16.56545 c -0.021484,-0.0087 -0.056641,-0.0087 -0.078125,0 -0.021484,0.0087 -0.00391,0.01576 0.039063,0.01576 0.042969,0 0.060547,-0.0071 0.039063,-0.01576 z m 0.15625,-0.03125 c -0.021484,-0.0087 -0.056641,-0.0087 -0.078125,0 -0.021484,0.0087 -0.00391,0.01576 0.039063,0.01576 0.042969,0 0.060547,-0.0071 0.039063,-0.01576 z m 1.1411342,-0.218365 c 0.571765,-0.11431 1.033625,-0.213783 1.026357,-0.221052 -0.01411,-0.01411 -2.0882402,0.395059 -2.1101996,0.41628 -0.025797,0.02493 0.059377,0.0096 1.0838426,-0.195228 z m 1.171366,-0.250385 c -0.02149,-0.0087 -0.05664,-0.0087 -0.07813,0 -0.02149,0.0087 -0.0039,0.01576 0.03906,0.01576 0.04297,0 0.06055,-0.0071 0.03906,-0.01576 z m 0.15625,-0.03125 c -0.02149,-0.0087 -0.05664,-0.0087 -0.07813,0 -0.02149,0.0087 -0.0039,0.01576 0.03906,0.01576 0.04297,0 0.06055,-0.0071 0.03906,-0.01576 z m 0.15625,-0.03125 c -0.02149,-0.0087 -0.05664,-0.0087 -0.07813,0 -0.02149,0.0087 -0.0039,0.01576 0.03906,0.01576 0.04297,0 0.06055,-0.0071 0.03906,-0.01576 z"
    id="path850" inkscape:connector-curvature="0" />
  <path style="fill:#ffffff;stroke-width:0.03125"
    d="M 8.2347568,25.929897 C 8.2254237,25.904115 7.8509134,24.58224 7.4025115,22.992397 6.95411,21.402553 6.5596409,20.008247 6.5259137,19.893938 L 6.4645918,19.686105 5.2853031,19.672489 C 4.1100268,19.658919 4.1050574,19.658583 3.8247643,19.573826 3.1175854,19.359982 2.6059237,18.92558 2.2749405,18.258022 1.9883587,17.680016 2.0122644,18.358309 2.0122644,10.804897 V 4.1330216 l 0.087618,-0.279708 C 2.2519602,3.3678248 2.4064447,3.1111567 2.7608314,2.7551801 3.0327623,2.4820292 3.1144842,2.4203176 3.3716393,2.2939333 3.5349206,2.2136854 3.7797482,2.1200422 3.9157007,2.0858373 c 0.2453449,-0.061727 0.380015,-0.062189 18.0781253,-0.061972 17.822098,2.188e-4 17.83107,2.505e-4 18.096563,0.063782 0.992816,0.2375777 1.739128,1.0831829 1.87416,2.1234988 0.02444,0.1883048 0.03182,2.1713393 0.02536,6.8125009 -0.0086,6.175568 -0.01228,6.5574 -0.06483,6.732452 -0.142828,0.475744 -0.313078,0.78982 -0.596322,1.10008 -0.307906,0.337274 -0.648922,0.55134 -1.144619,0.718512 l -0.265625,0.08958 -13.043162,0.0081 c -12.447335,0.0078 -13.041279,0.0056 -13.001947,-0.04687 0.147989,-0.197548 -0.447633,0.473015 -2.739317,3.083976 -3.0242324,3.445568 -2.8770096,3.282043 -2.8993312,3.220383 z m 5.8087572,-6.5 c 0.06713,-0.06875 0.115028,-0.125 0.106435,-0.125 -0.0086,0 -0.07055,0.05625 -0.137685,0.125 -0.06713,0.06875 -0.115028,0.125 -0.106434,0.125 0.0086,0 0.07055,-0.05625 0.137684,-0.125 z m -7.6817775,-0.16211 c -0.00998,-0.02493 -0.017381,-0.01752 -0.01888,0.01888 -0.00136,0.03294 0.00603,0.0514 0.016413,0.04102 0.010384,-0.01038 0.011494,-0.03734 0.00247,-0.0599 z m 7.9161525,-0.103515 c 0.05831,-0.06016 0.09898,-0.109375 0.09039,-0.109375 -0.0086,0 -0.06333,0.04922 -0.121636,0.109375 -0.05831,0.06016 -0.09898,0.109375 -0.09038,0.109375 0.0086,0 0.06333,-0.04922 0.121635,-0.109375 z M 6.2992365,19.049037 c -0.00998,-0.02493 -0.017381,-0.01752 -0.01888,0.01888 -0.00136,0.03294 0.00603,0.0514 0.016413,0.04102 0.010384,-0.01038 0.011494,-0.03734 0.00247,-0.0599 z m 8.1974025,-0.134765 c 0.05831,-0.06016 0.09898,-0.109375 0.09039,-0.109375 -0.0086,0 -0.06333,0.04922 -0.121636,0.109375 -0.05831,0.06016 -0.09898,0.109375 -0.09038,0.109375 0.0086,0 0.06333,-0.04922 0.121635,-0.109375 z m -8.2599025,-0.08399 c -0.00998,-0.02493 -0.017381,-0.01752 -0.01888,0.01888 -0.00136,0.03294 0.00603,0.0514 0.016413,0.04102 0.010384,-0.01038 0.011494,-0.03734 0.00247,-0.0599 z m -0.039204,-0.163783 c -0.011494,-0.0458 -0.026926,-0.07724 -0.034292,-0.06987 -0.00737,0.0074 -0.00399,0.05086 0.00751,0.09666 0.011494,0.0458 0.026926,0.07724 0.034292,0.06987 0.00737,-0.0074 0.00399,-0.05086 -0.00751,-0.09666 z m 8.5178565,-0.0022 c 0.05831,-0.06016 0.09898,-0.109375 0.09039,-0.109375 -0.0086,0 -0.06333,0.04922 -0.121636,0.109375 -0.05831,0.06016 -0.09898,0.109375 -0.09038,0.109375 0.0086,0 0.06333,-0.04922 0.121635,-0.109375 z M 6.1350322,18.447754 c -0.011494,-0.0458 -0.026926,-0.07724 -0.034292,-0.06987 -0.00737,0.0074 -0.00399,0.05086 0.00751,0.09666 0.011494,0.0458 0.026926,0.07724 0.034292,0.06987 0.00737,-0.0074 0.00399,-0.05086 -0.00751,-0.09666 z m 8.9241068,-0.174107 c 0.123955,-0.1375 0.218341,-0.25 0.209747,-0.25 -0.0086,0 -0.117042,0.1125 -0.240997,0.25 -0.123954,0.1375 -0.21834,0.25 -0.209746,0.25 0.0086,0 0.117042,-0.1125 0.240996,-0.25 z m -8.9866068,-0.04464 c -0.011494,-0.0458 -0.026926,-0.07724 -0.034292,-0.06987 -0.00737,0.0074 -0.00399,0.05086 0.00751,0.09666 0.011494,0.0458 0.026926,0.07724 0.034292,0.06987 0.00737,-0.0074 0.00399,-0.05086 -0.00751,-0.09666 z m -0.078497,-0.280878 c -0.020168,-0.08009 -0.042528,-0.139764 -0.049689,-0.132603 -0.00716,0.0072 0.00348,0.07855 0.023648,0.158644 0.020168,0.08009 0.042528,0.139764 0.049689,0.132603 0.00716,-0.0072 -0.00348,-0.07855 -0.023648,-0.158644 z m 9.4088538,-0.0651 c 0.05831,-0.06016 0.09898,-0.109375 0.09039,-0.109375 -0.0086,0 -0.06333,0.04922 -0.121636,0.109375 -0.05831,0.06016 -0.09898,0.109375 -0.09038,0.109375 0.0086,0 0.06333,-0.04922 0.121635,-0.109375 z M 5.9162822,17.666504 c -0.011494,-0.0458 -0.026926,-0.07724 -0.034292,-0.06987 -0.00737,0.0074 -0.00399,0.05086 0.00751,0.09666 0.011494,0.0458 0.026926,0.07724 0.034292,0.06987 0.00737,-0.0074 0.00399,-0.05086 -0.00751,-0.09666 z m 9.7053568,-0.03348 c 0.05831,-0.06016 0.09898,-0.109375 0.09039,-0.109375 -0.0086,0 -0.06333,0.04922 -0.121636,0.109375 -0.05831,0.06016 -0.09898,0.109375 -0.09038,0.109375 0.0086,0 0.06333,-0.04922 0.121635,-0.109375 z M 5.8377853,17.385626 c -0.020168,-0.08009 -0.042528,-0.139764 -0.049689,-0.132603 -0.00716,0.0072 0.00348,0.07855 0.023648,0.158644 0.020168,0.08009 0.042528,0.139764 0.049689,0.132603 0.00716,-0.0072 -0.00348,-0.07855 -0.023648,-0.158644 z M 16.970131,16.098412 c 0.658041,-0.748901 1.216986,-1.390975 1.242099,-1.42683 0.039,-0.05569 0.03914,-0.06275 9.72e-4,-0.04848 -0.02458,0.0092 -0.732329,0.15511 -1.572779,0.324264 -0.84045,0.169154 -1.515292,0.311819 -1.49965,0.317033 0.01564,0.0052 0.695205,-0.124041 1.51014,-0.287233 0.814935,-0.163192 1.486633,-0.291779 1.492663,-0.28575 0.01224,0.01224 -0.493772,0.598861 -1.659765,1.9242 -0.430088,0.488866 -0.76581,0.878854 -0.746049,0.86664 0.01976,-0.01221 0.574327,-0.634943 1.232368,-1.383845 z M 6.1461918,17.10204 c 0.1595975,-0.03043 0.2837979,-0.06171 0.2760007,-0.06951 -0.0078,-0.0078 -0.1579135,0.01514 -0.3335913,0.05097 -0.1756781,0.03583 -0.3244878,0.06515 -0.3306881,0.06515 -0.0062,0 -0.011274,0.01456 -0.011274,0.03235 0,0.02064 0.019799,0.02222 0.054687,0.0044 0.030078,-0.01539 0.1852675,-0.05289 0.344865,-0.08332 z m 0.42076,-0.09909 c -0.021484,-0.0087 -0.056641,-0.0087 -0.078125,0 -0.021484,0.0087 -0.00391,0.01576 0.039063,0.01576 0.042969,0 0.060547,-0.0071 0.039062,-0.01576 z m 0.15625,-0.03125 c -0.021484,-0.0087 -0.056641,-0.0087 -0.078125,0 -0.021484,0.0087 -0.00391,0.01576 0.039063,0.01576 0.042969,0 0.060547,-0.0071 0.039062,-0.01576 z m 0.15625,-0.03125 c -0.021484,-0.0087 -0.056641,-0.0087 -0.078125,0 -0.021484,0.0087 -0.00391,0.01576 0.039063,0.01576 0.042969,0 0.060547,-0.0071 0.039062,-0.01576 z m 0.15625,-0.03125 c -0.021484,-0.0087 -0.056641,-0.0087 -0.078125,0 -0.021484,0.0087 -0.00391,0.01576 0.039063,0.01576 0.042969,0 0.060547,-0.0071 0.039062,-0.01576 z m 0.15625,-0.03125 c -0.021484,-0.0087 -0.056641,-0.0087 -0.078125,0 -0.021484,0.0087 -0.00391,0.01576 0.039063,0.01576 0.042969,0 0.060547,-0.0071 0.039062,-0.01576 z m 0.15625,-0.03125 c -0.021484,-0.0087 -0.056641,-0.0087 -0.078125,0 -0.021484,0.0087 -0.00391,0.01576 0.039063,0.01576 0.042969,0 0.060547,-0.0071 0.039062,-0.01576 z m 0.15625,-0.03125 c -0.021484,-0.0087 -0.056641,-0.0087 -0.078125,0 -0.021484,0.0087 -0.00391,0.01576 0.039063,0.01576 0.042969,0 0.060547,-0.0071 0.039062,-0.01576 z m 0.1399741,-0.02943 c -0.010384,-0.01038 -0.037337,-0.01149 -0.059896,-0.0025 -0.024929,0.01 -0.017524,0.01738 0.01888,0.01888 0.032942,0.0014 0.0514,-0.006 0.041016,-0.01641 z m 0.15625,-0.03125 c -0.010384,-0.01038 -0.037337,-0.01149 -0.059896,-0.0025 -0.024929,0.01 -0.017524,0.01738 0.01888,0.01888 0.032942,0.0014 0.0514,-0.006 0.041016,-0.01641 z m 0.15625,-0.03125 c -0.010384,-0.01038 -0.037337,-0.01149 -0.059896,-0.0025 -0.024929,0.01 -0.017524,0.01738 0.01888,0.01888 0.032942,0.0014 0.0514,-0.006 0.041016,-0.01641 z m 0.15625,-0.03125 c -0.010384,-0.01038 -0.037337,-0.01149 -0.059896,-0.0025 -0.024929,0.01 -0.017524,0.01738 0.01888,0.01888 0.032942,0.0014 0.0514,-0.006 0.041016,-0.01641 z M 8.2544518,16.6592 c -0.021484,-0.0087 -0.056641,-0.0087 -0.078125,0 -0.021484,0.0087 -0.00391,0.01576 0.039063,0.01576 0.042969,0 0.060547,-0.0071 0.039063,-0.01576 z m 0.1712241,-0.02943 c -0.010384,-0.01038 -0.037337,-0.01149 -0.059896,-0.0025 -0.024929,0.01 -0.017524,0.01738 0.01888,0.01888 0.032942,0.0014 0.0514,-0.006 0.041016,-0.01641 z m 0.625,-0.125 c -0.010384,-0.01038 -0.037337,-0.01149 -0.059896,-0.0025 -0.024929,0.01 -0.017524,0.01738 0.01888,0.01888 0.032942,0.0014 0.0514,-0.006 0.041016,-0.01641 z M 9.1919518,16.4717 c -0.021484,-0.0087 -0.056641,-0.0087 -0.078125,0 -0.021484,0.0087 -0.00391,0.01576 0.039063,0.01576 0.042969,0 0.060547,-0.0071 0.039063,-0.01576 z m 0.15625,-0.03125 c -0.021484,-0.0087 -0.056641,-0.0087 -0.078125,0 -0.021484,0.0087 -0.00391,0.01576 0.039063,0.01576 0.042969,0 0.060547,-0.0071 0.039063,-0.01576 z m 0.15625,-0.03125 c -0.021484,-0.0087 -0.056641,-0.0087 -0.078125,0 -0.021484,0.0087 -0.00391,0.01576 0.039063,0.01576 0.042969,0 0.060547,-0.0071 0.039063,-0.01576 z m 0.15625,-0.03125 c -0.021484,-0.0087 -0.056641,-0.0087 -0.078125,0 -0.021484,0.0087 -0.00391,0.01576 0.039063,0.01576 0.042969,0 0.060547,-0.0071 0.039063,-0.01576 z m 0.15625,-0.03125 c -0.021484,-0.0087 -0.056641,-0.0087 -0.078125,0 -0.021484,0.0087 -0.00391,0.01576 0.039063,0.01576 0.042969,0 0.060547,-0.0071 0.039063,-0.01576 z m 0.1399741,-0.02943 c -0.010384,-0.01038 -0.037337,-0.01149 -0.059896,-0.0025 -0.024929,0.01 -0.017524,0.01738 0.01888,0.01888 0.032942,0.0014 0.0514,-0.006 0.041016,-0.01641 z M 10.098202,16.2842 c -0.02149,-0.0087 -0.05664,-0.0087 -0.07813,0 -0.021484,0.0087 -0.0039,0.01576 0.03906,0.01576 0.04297,0 0.06055,-0.0071 0.03906,-0.01576 z m 0.171224,-0.02943 c -0.01038,-0.01038 -0.03734,-0.01149 -0.0599,-0.0025 -0.02493,0.01 -0.01752,0.01738 0.01888,0.01888 0.03294,0.0014 0.0514,-0.006 0.04102,-0.01641 z m 0.15625,-0.03125 c -0.01038,-0.01038 -0.03734,-0.01149 -0.0599,-0.0025 -0.02493,0.01 -0.01752,0.01738 0.01888,0.01888 0.03294,0.0014 0.0514,-0.006 0.04102,-0.01641 z m 0.15625,-0.03125 c -0.01038,-0.01038 -0.03734,-0.01149 -0.0599,-0.0025 -0.02493,0.01 -0.01752,0.01738 0.01888,0.01888 0.03294,0.0014 0.0514,-0.006 0.04102,-0.01641 z m 0.15625,-0.03125 c -0.01038,-0.01038 -0.03734,-0.01149 -0.0599,-0.0025 -0.02493,0.01 -0.01752,0.01738 0.01888,0.01888 0.03294,0.0014 0.0514,-0.006 0.04102,-0.01641 z m 0.15625,-0.03125 c -0.01038,-0.01038 -0.03734,-0.01149 -0.0599,-0.0025 -0.02493,0.01 -0.01752,0.01738 0.01888,0.01888 0.03294,0.0014 0.0514,-0.006 0.04102,-0.01641 z m 1.0625,-0.21875 c -0.01038,-0.01038 -0.03734,-0.01149 -0.0599,-0.0025 -0.02493,0.01 -0.01752,0.01738 0.01888,0.01888 0.03294,0.0014 0.0514,-0.006 0.04102,-0.01641 z m 0.15625,-0.03125 c -0.01038,-0.01038 -0.03734,-0.01149 -0.0599,-0.0025 -0.02493,0.01 -0.01752,0.01738 0.01888,0.01888 0.03294,0.0014 0.0514,-0.006 0.04102,-0.01641 z m 0.15625,-0.03125 c -0.01038,-0.01038 -0.03734,-0.01149 -0.0599,-0.0025 -0.02493,0.01 -0.01752,0.01738 0.01888,0.01888 0.03294,0.0014 0.0514,-0.006 0.04102,-0.01641 z m 0.15625,-0.03125 c -0.01038,-0.01038 -0.03734,-0.01149 -0.0599,-0.0025 -0.02493,0.01 -0.01752,0.01738 0.01888,0.01888 0.03294,0.0014 0.0514,-0.006 0.04102,-0.01641 z m 0.15625,-0.03125 c -0.01038,-0.01038 -0.03734,-0.01149 -0.0599,-0.0025 -0.02493,0.01 -0.01752,0.01738 0.01888,0.01888 0.03294,0.0014 0.0514,-0.006 0.04102,-0.01641 z m 0.15625,-0.03125 c -0.01038,-0.01038 -0.03734,-0.01149 -0.0599,-0.0025 -0.02493,0.01 -0.01752,0.01738 0.01888,0.01888 0.03294,0.0014 0.0514,-0.006 0.04102,-0.01641 z m 0.15625,-0.03125 c -0.01038,-0.01038 -0.03734,-0.01149 -0.0599,-0.0025 -0.02493,0.01 -0.01752,0.01738 0.01888,0.01888 0.03294,0.0014 0.0514,-0.006 0.04102,-0.01641 z m 0.15625,-0.03125 c -0.01038,-0.01038 -0.03734,-0.01149 -0.0599,-0.0025 -0.02493,0.01 -0.01752,0.01738 0.01888,0.01888 0.03294,0.0014 0.0514,-0.006 0.04102,-0.01641 z m 0.15625,-0.03125 c -0.01038,-0.01038 -0.03734,-0.01149 -0.0599,-0.0025 -0.02493,0.01 -0.01752,0.01738 0.01888,0.01888 0.03294,0.0014 0.0514,-0.006 0.04102,-0.01641 z m 0.15625,-0.03125 c -0.01038,-0.01038 -0.03734,-0.01149 -0.0599,-0.0025 -0.02493,0.01 -0.01752,0.01738 0.01888,0.01888 0.03294,0.0014 0.0514,-0.006 0.04102,-0.01641 z m 0.141276,-0.03307 c -0.02149,-0.0087 -0.05664,-0.0087 -0.07813,0 -0.02149,0.0087 -0.0039,0.01576 0.03906,0.01576 0.04297,0 0.06055,-0.0071 0.03906,-0.01576 z m 0.15625,-0.03125 c -0.02149,-0.0087 -0.05664,-0.0087 -0.07813,0 -0.02149,0.0087 -0.0039,0.01576 0.03906,0.01576 0.04297,0 0.06055,-0.0071 0.03906,-0.01576 z m 0.15625,-0.03125 c -0.02149,-0.0087 -0.05664,-0.0087 -0.07813,0 -0.02149,0.0087 -0.0039,0.01576 0.03906,0.01576 0.04297,0 0.06055,-0.0071 0.03906,-0.01576 z m 0.15625,-0.03125 c -0.02149,-0.0087 -0.05664,-0.0087 -0.07813,0 -0.02149,0.0087 -0.0039,0.01576 0.03906,0.01576 0.04297,0 0.06055,-0.0071 0.03906,-0.01576 z m 0.15625,-0.03125 c -0.02149,-0.0087 -0.05664,-0.0087 -0.07813,0 -0.02149,0.0087 -0.0039,0.01576 0.03906,0.01576 0.04297,0 0.06055,-0.0071 0.03906,-0.01576 z m 0.15625,-0.03125 c -0.02149,-0.0087 -0.05664,-0.0087 -0.07813,0 -0.02149,0.0087 -0.0039,0.01576 0.03906,0.01576 0.04297,0 0.06055,-0.0071 0.03906,-0.01576 z m 0.15625,-0.03125 c -0.02149,-0.0087 -0.05664,-0.0087 -0.07813,0 -0.02149,0.0087 -0.0039,0.01576 0.03906,0.01576 0.04297,0 0.06055,-0.0071 0.03906,-0.01576 z m 0.15625,-0.03125 c -0.02149,-0.0087 -0.05664,-0.0087 -0.07813,0 -0.02149,0.0087 -0.0039,0.01576 0.03906,0.01576 0.04297,0 0.06055,-0.0071 0.03906,-0.01576 z m 0.15625,-0.03125 c -0.02149,-0.0087 -0.05664,-0.0087 -0.07813,0 -0.02149,0.0087 -0.0039,0.01576 0.03906,0.01576 0.04297,0 0.06055,-0.0071 0.03906,-0.01576 z m 0.15625,-0.03125 c -0.02149,-0.0087 -0.05664,-0.0087 -0.07813,0 -0.02149,0.0087 -0.0039,0.01576 0.03906,0.01576 0.04297,0 0.06055,-0.0071 0.03906,-0.01576 z m 0.15625,-0.03125 c -0.02149,-0.0087 -0.05664,-0.0087 -0.07813,0 -0.02149,0.0087 -0.0039,0.01576 0.03906,0.01576 0.04297,0 0.06055,-0.0071 0.03906,-0.01576 z"
    id="path852" inkscape:connector-curvature="0" />
  <path style="fill:#ffffff;stroke-width:0.03125"
    d="M 8.2342137,25.929897 C 8.2245822,25.904115 7.8439381,24.563958 7.3883384,22.951769 6.9327387,21.33958 6.5376956,19.943877 6.5104647,19.850206 l -0.04951,-0.170309 -1.02122,-9.65e-4 C 4.8780634,19.678401 4.3130456,19.664298 4.1841393,19.647592 3.344232,19.538741 2.6467963,19.026873 2.2541803,18.231142 1.9930581,17.701913 2.0122644,18.293982 2.0122644,10.773647 V 4.1017716 l 0.089141,-0.265625 C 2.2647082,3.3495319 2.4143782,3.1039815 2.7611369,2.7537828 3.0455359,2.4665623 3.1053439,2.4223596 3.4028893,2.2794774 c 0.1814604,-0.087138 0.4328855,-0.1798696 0.5625,-0.207464 0.2133594,-0.045423 1.8399675,-0.049128 18.1406247,-0.04132 l 17.90625,0.00858 0.25,0.088008 c 0.835522,0.2941298 1.422497,0.926315 1.649194,1.7762165 l 0.06956,0.2607757 v 6.6875004 c 0,6.29067 -0.0033,6.699328 -0.05508,6.886843 -0.255003,0.923012 -0.811831,1.514169 -1.732815,1.839652 l -0.24336,0.08601 -13.05669,0.0081 c -10.482651,0.0065 -13.052746,3.18e-4 -13.036682,-0.03125 0.02582,-0.05074 0.281365,-0.339454 -2.690499,3.039716 -3.0357858,3.451853 -2.9085918,3.310888 -2.9316793,3.24909 z m 5.8112663,-6.507813 0.09178,-0.101562 -0.101562,0.09178 c -0.09467,0.08555 -0.115927,0.111341 -0.09178,0.111341 0.0054,0 0.05108,-0.0457 0.101562,-0.101563 z m 0.232409,-0.257812 c 0.04037,-0.04297 0.06636,-0.07813 0.05777,-0.07813 -0.0086,0 -0.04865,0.03516 -0.08902,0.07813 -0.04037,0.04297 -0.06636,0.07813 -0.05777,0.07813 0.0086,0 0.04865,-0.03516 0.08902,-0.07813 z m 0.21875,-0.25 c 0.04037,-0.04297 0.06636,-0.07813 0.05777,-0.07813 -0.0086,0 -0.04865,0.03516 -0.08902,0.07813 -0.04037,0.04297 -0.06636,0.07813 -0.05777,0.07813 0.0086,0 0.04865,-0.03516 0.08902,-0.07813 z m 0.21875,-0.25 c 0.04037,-0.04297 0.06636,-0.07813 0.05777,-0.07813 -0.0086,0 -0.04865,0.03516 -0.08902,0.07813 -0.04037,0.04297 -0.06636,0.07813 -0.05777,0.07813 0.0086,0 0.04865,-0.03516 0.08902,-0.07813 z m 0.25,-0.28125 c 0.04037,-0.04297 0.06636,-0.07813 0.05777,-0.07813 -0.0086,0 -0.04865,0.03516 -0.08902,0.07813 -0.04037,0.04297 -0.06636,0.07813 -0.05777,0.07813 0.0086,0 0.04865,-0.03516 0.08902,-0.07813 z m 0.1875,-0.21875 c 0.04037,-0.04297 0.06636,-0.07813 0.05777,-0.07813 -0.0086,0 -0.04865,0.03516 -0.08902,0.07813 -0.04037,0.04297 -0.06636,0.07813 -0.05777,0.07813 0.0086,0 0.04865,-0.03516 0.08902,-0.07813 z m 0.25,-0.28125 c 0.04037,-0.04297 0.06636,-0.07813 0.05777,-0.07813 -0.0086,0 -0.04865,0.03516 -0.08902,0.07813 -0.04037,0.04297 -0.06636,0.07813 -0.05777,0.07813 0.0086,0 0.04865,-0.03516 0.08902,-0.07813 z m 0.21875,-0.25 c 0.04037,-0.04297 0.06636,-0.07813 0.05777,-0.07813 -0.0086,0 -0.04865,0.03516 -0.08902,0.07813 -0.04037,0.04297 -0.06636,0.07813 -0.05777,0.07813 0.0086,0 0.04865,-0.03516 0.08902,-0.07813 z m 0.253987,-0.289063 c 0.03887,-0.04956 0.03777,-0.05067 -0.0118,-0.0118 -0.05206,0.04082 -0.06861,0.06649 -0.04289,0.06649 0.0065,0 0.0311,-0.02461 0.05469,-0.05469 z M 5.8403893,17.160928 c 0,-0.0068 -0.021094,-0.01228 -0.046875,-0.01228 -0.025781,0 -0.046875,0.01362 -0.046875,0.03027 0,0.01665 0.021094,0.02218 0.046875,0.01228 0.025781,-0.0099 0.046875,-0.02351 0.046875,-0.03027 z m 10.2363407,-0.05134 0.09178,-0.101562 -0.101562,0.09178 c -0.09467,0.08555 -0.115927,0.111341 -0.09178,0.111341 0.0054,0 0.05108,-0.0457 0.101562,-0.101563 z M 5.9732018,17.12795 c -0.021484,-0.0087 -0.056641,-0.0087 -0.078125,0 -0.021484,0.0087 -0.00391,0.01576 0.039063,0.01576 0.042969,0 0.060547,-0.0071 0.039062,-0.01576 z m 0.15625,-0.03125 c -0.021484,-0.0087 -0.056641,-0.0087 -0.078125,0 -0.021484,0.0087 -0.00391,0.01576 0.039063,0.01576 0.042969,0 0.060547,-0.0071 0.039062,-0.01576 z m 0.1399741,-0.02943 c -0.010384,-0.01038 -0.037337,-0.01149 -0.059896,-0.0025 -0.024929,0.01 -0.017524,0.01738 0.01888,0.01888 0.032942,0.0014 0.0514,-0.006 0.041016,-0.01641 z m 10.0260541,-0.207682 0.09178,-0.101562 -0.101562,0.09178 c -0.09467,0.08555 -0.115927,0.111341 -0.09178,0.111341 0.0054,0 0.05108,-0.0457 0.101562,-0.101563 z m 0.21875,-0.25 0.09178,-0.101562 -0.101562,0.09178 c -0.09467,0.08555 -0.115927,0.111341 -0.09178,0.111341 0.0054,0 0.05108,-0.0457 0.101562,-0.101563 z m 0.232409,-0.257812 c 0.05831,-0.06016 0.09898,-0.109375 0.09039,-0.109375 -0.0086,0 -0.06333,0.04922 -0.121636,0.109375 -0.0583,0.06016 -0.09898,0.109375 -0.09038,0.109375 0.0086,0 0.06333,-0.04922 0.121635,-0.109375 z m 0.21875,-0.25 c 0.05831,-0.06016 0.09898,-0.109375 0.09039,-0.109375 -0.0086,0 -0.06333,0.04922 -0.121636,0.109375 -0.0583,0.06016 -0.09898,0.109375 -0.09038,0.109375 0.0086,0 0.06333,-0.04922 0.121635,-0.109375 z m 0.21875,-0.25 c 0.05831,-0.06016 0.09898,-0.109375 0.09039,-0.109375 -0.0086,0 -0.06333,0.04922 -0.121636,0.109375 -0.0583,0.06016 -0.09898,0.109375 -0.09038,0.109375 0.0086,0 0.06333,-0.04922 0.121635,-0.109375 z m 0.21875,-0.25 c 0.05831,-0.06016 0.09898,-0.109375 0.09039,-0.109375 -0.0086,0 -0.06333,0.04922 -0.121636,0.109375 -0.0583,0.06016 -0.09898,0.109375 -0.09038,0.109375 0.0086,0 0.06333,-0.04922 0.121635,-0.109375 z m 0.343467,-0.390305 c 0.106821,-0.120489 0.187464,-0.21907 0.179207,-0.21907 -0.0083,0 -0.111659,0.108285 -0.229781,0.240635 -0.118122,0.13235 -0.198765,0.230931 -0.179207,0.21907 0.01956,-0.01186 0.122959,-0.120147 0.229781,-0.240635 z m -2.38318,0.01205 c -0.01038,-0.01038 -0.03734,-0.01149 -0.0599,-0.0025 -0.02493,0.01 -0.01752,0.01738 0.01888,0.01888 0.03294,0.0014 0.0514,-0.006 0.04102,-0.01641 z m 0.15625,-0.03125 c -0.01038,-0.01038 -0.03734,-0.01149 -0.0599,-0.0025 -0.02493,0.01 -0.01752,0.01738 0.01888,0.01888 0.03294,0.0014 0.0514,-0.006 0.04102,-0.01641 z m 0.15625,-0.03125 c -0.01038,-0.01038 -0.03734,-0.01149 -0.0599,-0.0025 -0.02493,0.01 -0.01752,0.01738 0.01888,0.01888 0.03294,0.0014 0.0514,-0.006 0.04102,-0.01641 z m 0.15625,-0.03125 c -0.01038,-0.01038 -0.03734,-0.01149 -0.0599,-0.0025 -0.02493,0.01 -0.01752,0.01738 0.01888,0.01888 0.03294,0.0014 0.0514,-0.006 0.04102,-0.01641 z m 0.172526,-0.03307 c -0.02149,-0.0087 -0.05664,-0.0087 -0.07813,0 -0.02149,0.0087 -0.0039,0.01576 0.03906,0.01576 0.04297,0 0.06055,-0.0071 0.03906,-0.01576 z m 0.139974,-0.02943 c -0.01038,-0.01038 -0.03734,-0.01149 -0.0599,-0.0025 -0.02493,0.01 -0.01752,0.01738 0.01888,0.01888 0.03294,0.0014 0.0514,-0.006 0.04102,-0.01641 z m 0.15625,-0.03125 c -0.01038,-0.01038 -0.03734,-0.01149 -0.0599,-0.0025 -0.02493,0.01 -0.01752,0.01738 0.01888,0.01888 0.03294,0.0014 0.0514,-0.006 0.04102,-0.01641 z m 0.976384,-0.184078 c 0.470431,-0.09444 0.861035,-0.166003 0.868008,-0.159029 0.007,0.007 -0.03412,0.0681 -0.09131,0.135848 -0.0572,0.06774 -0.03735,0.05243 0.04409,-0.03403 0.08145,-0.08646 0.144728,-0.159758 0.140625,-0.162887 -0.0077,-0.0059 -1.752579,0.34665 -1.835587,0.370877 -0.174579,0.05095 0.137,-0.0028 0.874171,-0.150778 z"
    id="path854" inkscape:connector-curvature="0" />
  <path style="fill:#ffffff;stroke-width:0.03125"
    d="m 8.2324609,25.928004 c -0.00922,-0.02474 -0.3670634,-1.282482 -0.7952112,-2.794982 -0.4281475,-1.5125 -0.82373,-2.906931 -0.8790719,-3.098734 L 6.4575565,19.685554 5.2817853,19.671848 C 3.9553355,19.656387 3.9105943,19.650201 3.4185143,19.414239 2.9164535,19.173492 2.5083039,18.757818 2.2446329,18.218716 1.9980852,17.714625 2.0170626,18.297529 2.005396,10.870373 1.9949853,4.2427114 1.9950669,4.2323438 2.0596714,3.979748 2.0952575,3.8406109 2.1956122,3.5799859 2.2826819,3.4005812 2.4244733,3.1084244 2.4740533,3.0413439 2.7578775,2.7576544 3.0993996,2.4162943 3.3491066,2.2606924 3.7935143,2.1123097 l 0.21875,-0.073038 H 22.027889 40.043514 l 0.234375,0.08901 c 0.838072,0.3182814 1.389703,0.9116005 1.631447,1.7547397 l 0.07168,0.25 v 6.7187506 c 0,6.428094 -0.0025,6.727537 -0.05747,6.921875 -0.247169,0.87366 -0.816844,1.471562 -1.723785,1.80919 l -0.21875,0.08143 -13.093299,0.01563 -13.0933,0.01563 -2.679748,3.045883 c -1.4738608,1.675237 -2.7215292,3.087666 -2.7725964,3.138733 -0.070664,0.07066 -0.096854,0.0821 -0.1096097,0.04787 z m 5.7994151,-6.490295 c 0.03887,-0.04956 0.03777,-0.05067 -0.0118,-0.0118 -0.03008,0.02359 -0.05469,0.0482 -0.05469,0.05469 0,0.02572 0.02566,0.0092 0.06649,-0.04289 z m 0.25,-0.28125 c 0.03887,-0.04956 0.03777,-0.05067 -0.0118,-0.0118 -0.03008,0.02359 -0.05469,0.0482 -0.05469,0.05469 0,0.02572 0.02566,0.0092 0.06649,-0.04289 z m 0.21875,-0.25 c 0.03887,-0.04956 0.03777,-0.05067 -0.0118,-0.0118 -0.05206,0.04082 -0.06861,0.06649 -0.04289,0.06649 0.0065,0 0.0311,-0.02461 0.05469,-0.05469 z m 0.21875,-0.25 c 0.03887,-0.04956 0.03777,-0.05067 -0.0118,-0.0118 -0.05206,0.04082 -0.06861,0.06649 -0.04289,0.06649 0.0065,0 0.0311,-0.02461 0.05469,-0.05469 z m 0.25,-0.28125 c 0.03887,-0.04956 0.03777,-0.05067 -0.0118,-0.0118 -0.03008,0.02359 -0.05469,0.0482 -0.05469,0.05469 0,0.02572 0.02566,0.0092 0.06649,-0.04289 z m 0.1875,-0.21875 c 0.03887,-0.04956 0.03777,-0.05067 -0.0118,-0.0118 -0.03008,0.02359 -0.05469,0.0482 -0.05469,0.05469 0,0.02572 0.02566,0.0092 0.06649,-0.04289 z m 0.25,-0.28125 c 0.03887,-0.04956 0.03777,-0.05067 -0.0118,-0.0118 -0.05206,0.04082 -0.06861,0.06649 -0.04289,0.06649 0.0065,0 0.0311,-0.02461 0.05469,-0.05469 z m 0.21875,-0.25 c 0.03887,-0.04956 0.03777,-0.05067 -0.0118,-0.0118 -0.05206,0.04082 -0.06861,0.06649 -0.04289,0.06649 0.0065,0 0.0311,-0.02461 0.05469,-0.05469 z M 5.8319259,17.161016 c -0.010384,-0.01038 -0.037337,-0.01149 -0.059896,-0.0025 -0.024929,0.01 -0.017524,0.01738 0.01888,0.01888 0.032942,0.0014 0.0514,-0.006 0.041016,-0.01641 z m 10.2312001,-0.03581 c 0.03887,-0.04956 0.03777,-0.05067 -0.0118,-0.0118 -0.05206,0.04082 -0.06861,0.06649 -0.04289,0.06649 0.0065,0 0.0311,-0.02461 0.05469,-0.05469 z m 0.21875,-0.25 c 0.03887,-0.04956 0.03777,-0.05067 -0.0118,-0.0118 -0.05205,0.04082 -0.06861,0.06649 -0.04289,0.06649 0.0065,0 0.0311,-0.02461 0.05469,-0.05469 z m 0.21875,-0.25 c 0.03887,-0.04956 0.03777,-0.05067 -0.0118,-0.0118 -0.05205,0.04082 -0.06861,0.06649 -0.04289,0.06649 0.0065,0 0.0311,-0.02461 0.05469,-0.05469 z m 0.246013,-0.273437 c 0.04037,-0.04297 0.06636,-0.07813 0.05777,-0.07813 -0.0086,0 -0.04865,0.03516 -0.08902,0.07813 -0.04037,0.04297 -0.06636,0.07813 -0.05777,0.07813 0.0086,0 0.04865,-0.03516 0.08902,-0.07813 z m 0.21875,-0.25 c 0.04037,-0.04297 0.06636,-0.07813 0.05777,-0.07813 -0.0086,0 -0.04865,0.03516 -0.08902,0.07813 -0.04037,0.04297 -0.06636,0.07813 -0.05777,0.07813 0.0086,0 0.04865,-0.03516 0.08902,-0.07813 z m 0.21875,-0.25 c 0.04037,-0.04297 0.06636,-0.07813 0.05777,-0.07813 -0.0086,0 -0.04865,0.03516 -0.08902,0.07813 -0.04037,0.04297 -0.06636,0.07813 -0.05777,0.07813 0.0086,0 0.04865,-0.03516 0.08902,-0.07813 z m 0.21875,-0.25 c 0.04037,-0.04297 0.06636,-0.07813 0.05777,-0.07813 -0.0086,0 -0.04865,0.03516 -0.08902,0.07813 -0.04037,0.04297 -0.06636,0.07813 -0.05777,0.07813 0.0086,0 0.04865,-0.03516 0.08902,-0.07813 z m 0.25,-0.28125 c 0.04037,-0.04297 0.06636,-0.07813 0.05777,-0.07813 -0.0086,0 -0.04865,0.03516 -0.08902,0.07813 -0.04037,0.04297 -0.06636,0.07813 -0.05777,0.07813 0.0086,0 0.04865,-0.03516 0.08902,-0.07813 z m 0.1875,-0.21875 c 0.04037,-0.04297 0.06636,-0.07813 0.05777,-0.07813 -0.0086,0 -0.04865,0.03516 -0.08902,0.07813 -0.04037,0.04297 -0.06636,0.07813 -0.05777,0.07813 0.0086,0 0.04865,-0.03516 0.08902,-0.07813 z m -1.227213,-0.128256 c -0.01038,-0.01038 -0.03734,-0.01149 -0.0599,-0.0025 -0.02493,0.01 -0.01752,0.01738 0.01888,0.01888 0.03294,0.0014 0.0514,-0.006 0.04102,-0.01641 z m 0.15625,-0.03125 c -0.01038,-0.01038 -0.03734,-0.01149 -0.0599,-0.0025 -0.02493,0.01 -0.01752,0.01738 0.01888,0.01888 0.03294,0.0014 0.0514,-0.006 0.04102,-0.01641 z m 0.15625,-0.03125 c -0.01038,-0.01038 -0.03734,-0.01149 -0.0599,-0.0025 -0.02493,0.01 -0.01752,0.01738 0.01888,0.01888 0.03294,0.0014 0.0514,-0.006 0.04102,-0.01641 z m 0.15625,-0.03125 c -0.01038,-0.01038 -0.03734,-0.01149 -0.0599,-0.0025 -0.02493,0.01 -0.01752,0.01738 0.01888,0.01888 0.03294,0.0014 0.0514,-0.006 0.04102,-0.01641 z m 0.15625,-0.03125 c -0.01038,-0.01038 -0.03734,-0.01149 -0.0599,-0.0025 -0.02493,0.01 -0.01752,0.01738 0.01888,0.01888 0.03294,0.0014 0.0514,-0.006 0.04102,-0.01641 z m 0.141276,-0.03307 c -0.02149,-0.0087 -0.05664,-0.0087 -0.07813,0 -0.02149,0.0087 -0.0039,0.01576 0.03906,0.01576 0.04297,0 0.06055,-0.0071 0.03906,-0.01576 z m 0.445312,-0.07305 c 0.359288,-0.07393 0.337693,-0.07229 0.308346,-0.02344 -0.01348,0.02244 0.0011,0.01912 0.03427,-0.0078 0.09157,-0.07434 0.0087,-0.0718 -0.389493,0.01194 -0.197656,0.04157 -0.336313,0.07698 -0.308127,0.07869 0.02819,0.0017 0.187937,-0.02501 0.355002,-0.05938 z"
    id="path856" inkscape:connector-curvature="0" />
  <path style="fill:#ffffff;stroke-width:0.03125"
    d="M 8.2399018,25.943322 C 8.2275062,25.922584 6.6056775,20.224155 6.4737037,19.737639 6.4610806,19.691105 6.3419447,19.684564 5.2672309,19.671399 3.9539195,19.655311 3.9207038,19.651097 3.4703807,19.443401 2.9886543,19.221222 2.6382197,18.898776 2.3458349,18.40867 2.144019,18.070379 2.069339,17.829155 2.0283071,17.383022 2.0082077,17.164484 1.9966821,14.704743 1.9966655,10.630208 1.9966397,4.3049539 1.9974638,4.2179119 2.0596899,3.9739579 2.0943678,3.8380054 2.1937944,3.5811168 2.2806381,3.4030942 2.412268,3.1332637 2.4831055,3.0331828 2.7064484,2.8014999 3.1051191,2.3879424 3.5497542,2.1371288 4.0278893,2.0560902 4.1745949,2.0312252 9.2089415,2.0241083 22.152889,2.0304672 l 17.921875,0.0088 0.244019,0.099088 c 0.778347,0.3160634 1.298338,0.8606597 1.561409,1.6352869 l 0.100822,0.296875 v 6.7500009 c 0,7.54091 0.01952,6.87978 -0.217959,7.382629 -0.322788,0.683488 -0.824431,1.117911 -1.602013,1.387337 l -0.258034,0.08941 H 26.857065 13.811124 l -2.61818,2.975448 c -2.9246953,3.323789 -2.9288628,3.32843 -2.9530422,3.287977 z m 8.5107242,-9.599363 c 0.03887,-0.04956 0.03777,-0.05067 -0.0118,-0.0118 -0.05205,0.04082 -0.06861,0.06649 -0.04289,0.06649 0.0065,0 0.0311,-0.02461 0.05469,-0.05469 z m 0.21875,-0.25 c 0.03887,-0.04956 0.03777,-0.05067 -0.0118,-0.0118 -0.03008,0.02359 -0.05469,0.0482 -0.05469,0.05469 0,0.02572 0.02566,0.0092 0.06649,-0.04289 z m 0.21875,-0.25 c 0.03887,-0.04956 0.03777,-0.05067 -0.0118,-0.0118 -0.05205,0.04082 -0.06861,0.06649 -0.04289,0.06649 0.0065,0 0.0311,-0.02461 0.05469,-0.05469 z m 0.21875,-0.25 c 0.03887,-0.04956 0.03777,-0.05067 -0.0118,-0.0118 -0.05205,0.04082 -0.06861,0.06649 -0.04289,0.06649 0.0065,0 0.0311,-0.02461 0.05469,-0.05469 z m 0.25,-0.28125 c 0.03887,-0.04956 0.03777,-0.05067 -0.0118,-0.0118 -0.05205,0.04082 -0.06861,0.06649 -0.04289,0.06649 0.0065,0 0.0311,-0.02461 0.05469,-0.05469 z m 0.1875,-0.21875 c 0.03887,-0.04956 0.03777,-0.05067 -0.0118,-0.0118 -0.05205,0.04082 -0.06861,0.06649 -0.04289,0.06649 0.0065,0 0.0311,-0.02461 0.05469,-0.05469 z m -0.13745,-0.339193 c -0.01038,-0.01038 -0.03734,-0.01149 -0.0599,-0.0025 -0.02493,0.01 -0.01752,0.01738 0.01888,0.01888 0.03294,0.0014 0.0514,-0.006 0.04102,-0.01641 z m 0.15625,-0.03125 c -0.01038,-0.01038 -0.03734,-0.01149 -0.0599,-0.0025 -0.02493,0.01 -0.01752,0.01738 0.01888,0.01888 0.03294,0.0014 0.0514,-0.006 0.04102,-0.01641 z m 0.172526,-0.03307 c -0.02149,-0.0087 -0.05664,-0.0087 -0.07813,0 -0.02149,0.0087 -0.0039,0.01576 0.03906,0.01576 0.04297,0 0.06055,-0.0071 0.03906,-0.01576 z m 0.164062,-0.01055 c 0.01077,-0.01743 -0.01261,-0.03104 -0.05284,-0.03077 -0.05805,3.84e-4 -0.06299,0.0064 -0.02528,0.03077 0.05815,0.03758 0.0549,0.03758 0.07813,0 z"
    id="path858" inkscape:connector-curvature="0" />
  <path style="fill:#ffffff;stroke-width:0.03125"
    d="M 8.2298906,25.922612 C 8.2202718,25.897546 7.8200481,24.494505 7.3405043,22.804743 6.8609606,21.114981 6.4517293,19.722018 6.4311018,19.709269 6.4104743,19.696521 5.8718597,19.679734 5.2341806,19.671966 3.9559785,19.656394 3.9054227,19.649911 3.4733851,19.446162 2.9372467,19.193319 2.5698132,18.84017 2.2802359,18.299397 2.1257287,18.010862 2.0695896,17.810649 2.0289299,17.403148 c -0.021067,-0.211143 -0.032291,-2.5582 -0.032291,-6.752814 0,-7.3309123 -0.028111,-6.6146714 0.2845003,-7.248759 C 2.5417814,2.8729005 3.0190157,2.4228565 3.5608002,2.1948225 3.9949264,2.0121014 2.6199672,2.0247426 22.074764,2.0246073 l 17.90625,-1.247e-4 0.257522,0.08964 c 0.409322,0.1424787 0.707141,0.3286587 1.007381,0.6297572 0.284194,0.2850051 0.421579,0.4890619 0.562632,0.8356699 0.205509,0.5049957 0.1919,-0.044861 0.181525,7.3347223 -0.01064,7.566661 0.01869,6.788497 -0.27835,7.383789 -0.30866,0.618565 -0.799188,1.029151 -1.552885,1.299807 l -0.228425,0.08203 H 26.872102 13.813789 l -1.931116,2.195312 c -2.7164699,3.088111 -3.5245846,4.00144 -3.583793,4.050394 -0.043689,0.03612 -0.054154,0.03567 -0.068989,-0.003 z M 18.184139,14.679897 c 0,-0.01719 -0.01489,-0.03125 -0.03309,-0.03125 -0.0182,0 -0.0244,0.01406 -0.01378,0.03125 0.01062,0.01719 0.02552,0.03125 0.0331,0.03125 0.0076,0 0.01378,-0.01406 0.01378,-0.03125 z"
    id="path860" inkscape:connector-curvature="0" />
  <path style="fill:#ffffff;stroke-width:0.03125"
    d="M 8.2330687,25.929788 C 8.222919,25.903947 7.8228465,24.507238 7.3440184,22.825992 6.8651906,21.144745 6.4568759,19.752606 6.4366531,19.73235 6.4104568,19.706112 6.0655928,19.690054 5.237324,19.676508 3.9284973,19.655102 3.8940138,19.650164 3.4185143,19.416059 2.9075089,19.164473 2.5243664,18.78225 2.2643474,18.264659 1.9927107,17.723944 2.0158429,18.381256 2.0048592,10.891187 1.9962258,5.0037808 2.0005955,4.2194516 2.0430497,4.0363928 2.2536831,3.1281592 2.8697083,2.4321142 3.7329732,2.1269532 L 3.9810143,2.0392716 H 22.027889 40.074764 l 0.25,0.1009686 c 0.706703,0.2854189 1.205525,0.7652884 1.479416,1.4232019 0.207994,0.4996225 0.194516,-0.03711 0.184369,7.3424819 -0.01043,7.583105 0.01809,6.827641 -0.279716,7.410385 -0.137937,0.269912 -0.205978,0.360591 -0.460459,0.613651 -0.321513,0.319714 -0.614391,0.499443 -1.089535,0.66861 L 39.930414,19.6799 H 26.873427 13.81644 l -2.605213,2.960454 C 8.2531287,26.00181 8.2588672,25.995472 8.2330687,25.929788 Z M 18.184139,14.679897 c 0,-0.01719 -0.01489,-0.03125 -0.03309,-0.03125 -0.0182,0 -0.0244,0.01406 -0.01378,0.03125 0.01062,0.01719 0.02552,0.03125 0.0331,0.03125 0.0076,0 0.01378,-0.01406 0.01378,-0.03125 z"
    id="path862" inkscape:connector-curvature="0" />
  <path style="fill:#ffffff;stroke-width:0.03125"
    d="M 8.2290237,25.920352 C 8.2195778,25.895737 7.8189209,24.499871 7.3386753,22.818428 6.8584297,21.136985 6.451039,19.746796 6.4333631,19.72912 6.4132653,19.709022 5.965429,19.689298 5.2379947,19.676472 3.956495,19.653877 3.897289,19.646089 3.4681629,19.443682 2.9025959,19.176918 2.5271511,18.798853 2.2173763,18.184165 2.0024775,17.75774 2.0168146,18.249766 2.0050837,10.898647 1.9954221,4.8441923 1.998996,4.2373332 2.0455725,4.0236466 2.1317733,3.6281684 2.340264,3.2089832 2.6172442,2.8742608 2.8867349,2.5485891 3.4283056,2.2026575 3.8560143,2.0829888 3.9890621,2.0457633 6.6921268,2.0392716 22.059139,2.0392716 h 18.046875 l 0.259953,0.1146712 c 0.359838,0.1587313 0.572057,0.2918908 0.806954,0.5063347 0.363621,0.331957 0.63709,0.7940063 0.761415,1.2864753 0.0629,0.2491571 0.06335,0.3065589 0.05422,6.9531252 -0.01034,7.524478 0.0125,6.841611 -0.245988,7.354416 -0.15999,0.317398 -0.21284,0.392894 -0.447703,0.639573 -0.313356,0.329117 -0.662678,0.544886 -1.1511,0.711009 l -0.220569,0.07502 h -13.05255 -13.05255 l -2.012289,2.288327 c -2.4502296,2.786344 -3.4800302,3.947704 -3.5253312,3.975702 -0.018851,0.01165 -0.042003,0.001 -0.051448,-0.02357 z"
    id="path864" inkscape:connector-curvature="0" />
  <path style="fill:#ffffff;stroke-width:0.03125"
    d="M 8.2381718,25.941478 C 8.227765,25.924639 7.8601597,24.653035 7.4212715,23.115692 6.6985503,20.584133 6.4444959,19.715207 6.4252253,19.708977 c -0.00369,-0.0012 -0.5340547,-0.01438 -1.178586,-0.0293 -0.6795345,-0.01573 -1.2375204,-0.04245 -1.328125,-0.06359 -0.2196076,-0.05124 -0.6426344,-0.253552 -0.8701099,-0.416135 -0.4937531,-0.352899 -0.904523,-0.979594 -0.9963283,-1.520058 -0.031395,-0.184825 -0.039812,-1.648228 -0.039812,-6.921875 0,-6.4433999 0.00213,-6.6943444 0.058403,-6.8750004 C 2.1695451,3.5655783 2.3624658,3.195535 2.5561624,2.9517883 2.894088,2.5265445 3.4497403,2.1694236 3.9289136,2.0695131 4.1221053,2.0292315 6.3941253,2.0244706 22.127839,2.0313784 l 17.978175,0.00789 0.259953,0.1146712 c 0.359838,0.1587313 0.572057,0.2918908 0.806954,0.5063347 0.363621,0.331957 0.63709,0.7940063 0.761415,1.2864753 0.06291,0.2491994 0.06334,0.3054331 0.05354,6.9531254 -0.01059,7.180319 -0.003,6.833075 -0.156328,7.192781 -0.166091,0.389755 -0.534669,0.859527 -0.864122,1.101368 -0.185285,0.136011 -0.516844,0.303781 -0.802694,0.406165 l -0.222531,0.07971 H 26.882012 13.82182 l -0.405945,0.460937 c -0.22327,0.253516 -1.389795,1.57871 -2.592278,2.944876 -2.3960817,2.722238 -2.557653,2.900704 -2.5854252,2.855768 z"
    id="path866" inkscape:connector-curvature="0" />
  <path style="fill:#ffffff;stroke-width:0.03125"
    d="M 8.2383687,25.941796 C 8.22807,25.925132 7.8817181,24.730872 7.4686978,23.287885 6.6604072,20.463922 6.4512322,19.749073 6.4257306,19.723571 6.4167681,19.714608 5.8771028,19.694984 5.2264747,19.679962 3.8865048,19.649023 3.8784606,19.64779 3.3798025,19.396951 2.8583004,19.134621 2.4884933,18.746724 2.2173733,18.177658 2.141655,18.01873 2.0760987,17.821319 2.0520761,17.679897 2.0206793,17.495061 2.0122644,16.028701 2.0122644,10.742397 V 4.0392716 l 0.08789,-0.25 C 2.2804048,3.2765543 2.5696449,2.8589665 2.9586309,2.5498536 3.240467,2.3258888 3.6342271,2.130957 3.9289132,2.0695131 4.1221055,2.0292314 6.3960012,2.0244707 22.143464,2.0313784 l 17.9938,0.00789 0.30786,0.1479582 c 0.663743,0.3189966 1.044665,0.6949892 1.332618,1.3153761 0.235691,0.507789 0.218919,-0.049049 0.218713,7.2615853 -3.13e-4,7.222634 0.0064,6.964763 -0.187741,7.379545 -0.147278,0.314725 -0.353837,0.602265 -0.60195,0.837948 -0.279847,0.265828 -0.510775,0.408985 -0.923912,0.57275 l -0.31651,0.125463 H 26.895116 13.823888 l -1.312062,1.49149 c -4.0908667,4.650308 -4.2428382,4.819952 -4.2734573,4.770409 z"
    id="path868" inkscape:connector-curvature="0" />
  <path style="fill:#ffffff;stroke-width:0.03125"
    d="M 8.2392893,25.943183 C 8.2294972,25.927282 7.88867,24.754115 7.4818962,23.336147 6.7702415,20.855398 6.4443,19.74214 6.4235659,19.721407 6.4181875,19.716028 5.8804756,19.698483 5.2286506,19.682417 3.8769535,19.649102 3.8476755,19.644521 3.3613679,19.390205 2.8623471,19.12924 2.5024096,18.754564 2.23215,18.214749 1.997696,17.746451 2.0158684,18.332462 2.0048612,10.885319 1.9950764,4.2652161 1.9955947,4.1976863 2.0580876,3.9505602 2.1943722,3.4116276 2.5400126,2.8763907 2.9680176,2.5414998 3.2468029,2.3233654 3.636971,2.1307263 3.9225254,2.0702274 4.1090703,2.0307051 6.4976881,2.0246606 22.115311,2.0241892 l 17.978047,-5.426e-4 0.328994,0.1551851 c 0.681103,0.3212761 1.063369,0.6946247 1.35539,1.3237742 0.235691,0.507789 0.218919,-0.049049 0.218713,7.2615851 -3.13e-4,7.222634 0.0064,6.964763 -0.187741,7.379545 -0.1477,0.315627 -0.354037,0.602456 -0.604625,0.84049 -0.273797,0.260079 -0.554372,0.433082 -0.948459,0.584823 l -0.287884,0.110848 -13.071491,2.77e-4 -13.071491,2.77e-4 -1.421875,1.616566 c -3.8900828,4.422738 -4.1337465,4.694642 -4.1635997,4.646166 z"
    id="path870" inkscape:connector-curvature="0" />
  <path style="fill:#ffffff;stroke-width:0.03125"
    d="M 7.4987618,23.406382 C 6.6459831,20.431291 6.4535012,19.780424 6.4152268,19.742464 6.3998475,19.727211 5.8599206,19.700821 5.2153893,19.683819 3.8843136,19.648708 3.8514513,19.643583 3.3693022,19.39592 3.0209975,19.217008 2.7009754,18.942901 2.4817939,18.635745 2.2829182,18.357046 2.1021203,17.962712 2.0540672,17.702841 2.0199921,17.518563 2.0122644,16.231847 2.0122644,10.742397 V 4.0080216 L 2.1125956,3.7476013 c 0.2739255,-0.711002 0.6834235,-1.1779166 1.3063249,-1.4894874 0.1549108,-0.077485 0.3799108,-0.1616948 0.5,-0.1871322 0.1913218,-0.040526 2.4440776,-0.046261 18.2027185,-0.046343 l 17.984375,-9.34e-5 0.31906,0.1534375 c 0.6902,0.3319209 1.047743,0.6813146 1.354487,1.32361 0.23456,0.4911536 0.219453,-0.045765 0.209006,7.4283042 -0.0087,6.212243 -0.01329,6.717451 -0.06286,6.898758 -0.111828,0.408983 -0.377944,0.832003 -0.735722,1.169513 -0.263669,0.248731 -0.546506,0.421543 -0.934356,0.570881 l -0.287884,0.110848 -13.071491,7.5e-4 -13.071491,7.5e-4 -1.28125,1.457414 C 8.9029134,25.279976 8.296649,25.961232 8.2520884,25.96107 8.2404978,25.961038 7.9015006,24.811418 7.4987618,23.406382 Z"
    id="path872" inkscape:connector-curvature="0" />
  <path style="fill:#ffffff;stroke-width:0.03125"
    d="M 7.623565,23.843901 C 6.6753072,20.53896 6.445564,19.768822 6.3991387,19.739417 c -0.023718,-0.01502 -0.1556244,-0.02821 -0.2931244,-0.0293 -0.1375,-0.0011 -0.6578125,-0.0145 -1.15625,-0.0298 C 3.912803,19.648498 3.8330951,19.634154 3.3693022,19.39592 2.8733609,19.141172 2.5037628,18.757267 2.23215,18.214749 1.9976357,17.746331 2.0158553,18.33695 2.004864,10.846896 L 1.9949973,4.1232699 2.0890062,3.8312708 C 2.3488221,3.0242614 2.9099911,2.4318188 3.7092624,2.1207186 l 0.2092519,-0.081447 18.0961407,-0.008 18.096141,-0.008 0.318971,0.1559851 c 0.669132,0.32722 1.020522,0.6594072 1.302569,1.2313829 0.289585,0.5872584 0.266969,-0.078731 0.255363,7.5192544 -0.0078,5.093477 -0.01929,6.740645 -0.04792,6.859375 -0.0967,0.401061 -0.395547,0.878097 -0.765372,1.221729 -0.27814,0.258444 -0.471159,0.378111 -0.8777,0.544161 l -0.305387,0.124735 -13.083279,8.4e-4 -13.083281,8.41e-4 -1.15625,1.317087 C 9.3389378,24.791395 8.2977728,25.961215 8.2518537,25.961087 8.2403922,25.961056 7.9576622,25.008321 7.623565,23.8439 Z"
    id="path874" inkscape:connector-curvature="0" />
  <path style="fill:#ffffff;stroke-width:0.03125"
    d="m 7.4702837,23.319204 c -1.0192281,-3.539491 -1.0281022,-3.568167 -1.1103153,-3.588 -0.03655,-0.0088 -0.4812978,-0.02486 -0.9883291,-0.03564 -1.4236349,-0.03028 -1.6092535,-0.06209 -2.1336915,-0.36561 -0.5354074,-0.309868 -1.069903,-1.020726 -1.1826196,-1.572837 -0.029055,-0.142316 -0.040732,-1.786443 -0.049212,-6.92864 l -0.011118,-6.7420467 0.0812,-0.2418905 C 2.3692192,2.9716454 2.9947053,2.3421328 3.8202436,2.0892661 L 4.0344728,2.0236466 H 22.080289 40.126105 L 40.537936,2.23247 c 0.376272,0.1907943 0.43771,0.2346373 0.711594,0.5078125 0.270209,0.2695062 0.317237,0.3344265 0.476937,0.6583641 0.113372,0.2299718 0.194144,0.4437683 0.224319,0.59375 0.04136,0.2055651 0.04589,1.0583377 0.03691,6.9375004 -0.0078,5.093477 -0.01929,6.740645 -0.04792,6.859375 -0.09621,0.399015 -0.390166,0.86956 -0.761456,1.218886 -0.274356,0.258121 -0.486075,0.389409 -0.890331,0.552089 l -0.297322,0.11965 -13.082955,0.0011 -13.082955,0.0011 -1.03125,1.176001 c -3.1202075,3.558176 -4.4951606,5.103033 -4.5416603,5.102875 -0.011461,-3.1e-5 -0.3631681,-1.188881 -0.78157,-2.641872 z"
    id="path876" inkscape:connector-curvature="0" />
  <path style="fill:#ffffff;stroke-width:0.03125"
    d="M 7.7193003,24.187709 C 6.394495,19.594624 6.4507365,19.778403 6.3592975,19.743661 6.3231168,19.729914 5.8716393,19.7089 5.3560143,19.696963 3.9419963,19.664227 3.7554981,19.632129 3.2389328,19.33259 2.7920474,19.073456 2.2928878,18.471514 2.1222207,17.985936 2.087828,17.888082 2.0456227,17.649114 2.0284312,17.454896 2.0088271,17.233422 1.9970743,14.67042 1.9969066,10.580197 L 1.9966394,4.0586214 2.0781942,3.8301965 C 2.3903186,2.9559756 2.9572421,2.3808917 3.7842134,2.0996206 l 0.223373,-0.075974 H 22.065642 40.123696 l 0.350365,0.174825 c 0.432247,0.2156812 0.582591,0.3246992 0.865366,0.6274916 0.268615,0.2876314 0.537794,0.7978595 0.611931,1.1599285 0.04071,0.1988 0.04545,1.0858332 0.03716,6.9531253 -0.0105,7.427008 0.0062,6.846141 -0.209087,7.27213 -0.153091,0.302919 -0.341594,0.552856 -0.6011,0.797011 -0.269656,0.253701 -0.47346,0.381422 -0.876269,0.549149 l -0.289794,0.120668 -13.09375,0.0025 -13.09375,0.0025 -1.59375,1.815934 c -3.0540531,3.479819 -3.9301343,4.462332 -3.9789456,4.462332 -0.011686,0 -0.2514316,-0.798047 -0.5327681,-1.773438 z"
    id="path878" inkscape:connector-curvature="0" />
  <path style="fill:#ffffff;stroke-width:0.03125"
    d="M 7.7501603,24.297084 C 7.0026012,21.709951 6.5365578,20.117803 6.4720362,19.930618 6.4204359,19.780919 6.4004865,19.756897 6.312894,19.738982 6.2578134,19.727717 5.8020137,19.708908 5.3000059,19.697184 4.797998,19.68546 4.2690662,19.662045 4.1246019,19.645151 3.4254121,19.563383 2.7342981,19.085698 2.3270169,18.402693 2.125743,18.06516 2.0680113,17.885116 2.0289413,17.473108 2.0079626,17.251879 1.9966825,14.848323 1.9966655,10.595822 L 1.9966394,4.0586214 2.0781942,3.8301965 C 2.3912607,2.9533367 2.9820929,2.3581184 3.806488,2.0890723 L 4.0069616,2.0236466 H 22.065139 40.123317 l 0.344285,0.1702217 c 0.409328,0.2023814 0.574525,0.3191121 0.827259,0.5845581 0.239775,0.2518355 0.293135,0.3291998 0.464369,0.6732628 0.258625,0.5196611 0.240569,-0.069742 0.229556,7.4938328 -0.01081,7.421577 0.006,6.840824 -0.20995,7.265625 -0.1646,0.323816 -0.318956,0.530128 -0.584509,0.78125 -0.28396,0.268524 -0.482785,0.394404 -0.892269,0.56491 l -0.289794,0.120668 -13.09375,0.0026 -13.09375,0.0026 -1.015625,1.160077 c -2.930719,3.347558 -4.5071331,5.117964 -4.5571625,5.117964 -0.011539,0 -0.2373568,-0.748829 -0.5018162,-1.664063 z"
    id="path880" inkscape:connector-curvature="0" />
  <path style="fill:#ffffff;stroke-width:0.03125"
    d="M 8.1329784,25.625209 C 8.0792587,25.440443 7.7321218,24.241615 7.3615634,22.961147 6.5504959,20.158494 6.4543956,19.84301 6.393054,19.781668 6.3538175,19.742432 6.1444297,19.72698 5.1945131,19.69322 3.9838548,19.650193 3.8679545,19.6354 3.5135604,19.47867 3.04973,19.273542 2.5673878,18.834154 2.3101958,18.382469 2.1255118,18.058123 2.063207,17.863133 2.0277245,17.498443 2.010346,17.319826 1.997921,14.501623 1.9974456,10.630682 L 1.9966394,4.0658436 2.0703044,3.8494326 C 2.233415,3.3702514 2.4923586,2.9597147 2.8203569,2.6602775 3.055255,2.4458336 3.2674734,2.3126741 3.6273099,2.1539428 l 0.2599544,-0.1146712 18.1126307,-0.00792 18.112629,-0.00792 0.215497,0.097393 c 0.363293,0.1641921 0.63205,0.3364087 0.858796,0.5503102 0.27226,0.2568346 0.40045,0.4311038 0.573938,0.7802447 0.256803,0.5168148 0.239041,-0.066902 0.228031,7.4941405 -0.01081,7.425711 0.0058,6.853567 -0.210497,7.270188 -0.168209,0.324065 -0.321412,0.528272 -0.585447,0.780349 -0.263831,0.251883 -0.484937,0.391006 -0.909909,0.572531 l -0.260581,0.111307 H 26.933293 13.844235 l -0.355421,0.398437 c -0.195482,0.219141 -0.972787,1.101563 -1.727345,1.960938 -2.5697422,2.926708 -3.4609862,3.921875 -3.5123259,3.921875 -0.010171,0 -0.062445,-0.151172 -0.1161647,-0.335938 z"
    id="path882" inkscape:connector-curvature="0" />
  <path style="fill:#ffffff;stroke-width:0.03125"
    d="M 7.7647184,24.359584 C 6.5221943,20.067713 6.4563831,19.848473 6.3899934,19.779901 6.3607378,19.749683 6.0552193,19.728092 5.19709,19.695599 3.982323,19.649602 3.8426482,19.631477 3.5012101,19.475543 3.040669,19.265215 2.5634506,18.82724 2.3101958,18.382469 2.1255118,18.058123 2.063207,17.863133 2.0277245,17.498443 2.0103444,17.31981 1.997921,14.498073 1.9974456,10.621177 L 1.9966394,4.0468332 2.0735368,3.8336554 C 2.3476955,3.0736238 2.7772581,2.5709862 3.4339992,2.2417583 3.5456409,2.1857917 3.7130767,2.1138212 3.8060789,2.0818237 3.9702241,2.0253495 4.5041886,2.0236466 22.04784,2.0236466 h 18.072665 l 0.268072,0.1238484 c 0.677962,0.3132196 1.139278,0.7667969 1.425312,1.4014042 0.192144,0.4262941 0.18275,0.056345 0.18275,7.1974778 0,4.438905 -0.01073,6.625956 -0.03351,6.83024 -0.04192,0.375955 -0.105063,0.545485 -0.335272,0.900155 -0.329012,0.506891 -0.751025,0.847451 -1.381219,1.114631 l -0.171875,0.07287 -13.124231,0.01563 -13.124231,0.01563 -1.745129,1.984375 c -3.0851946,3.508155 -3.7771983,4.28125 -3.8321843,4.28125 -0.011334,0 -0.2292559,-0.720704 -0.4842703,-1.601563 z"
    id="path884" inkscape:connector-curvature="0" />
  <path style="fill:#ffffff;stroke-width:0.03125"
    d="M 7.8948168,24.812709 C 7.7109465,24.181068 7.3629034,22.98224 7.1213878,22.148647 6.5350609,20.124934 6.4342943,19.807178 6.3675287,19.771447 6.3373578,19.7553 5.8021115,19.721698 5.1780931,19.696776 3.9620603,19.648211 3.836806,19.630824 3.4687187,19.459486 3.0209299,19.251048 2.5626396,18.824866 2.3101958,18.382131 2.1255812,18.058354 2.0632193,17.86326 2.0277245,17.498443 2.0103431,17.319797 1.9979211,14.495132 1.9974456,10.613305 L 1.9966394,4.0310878 2.0750274,3.82283 C 2.173657,3.5607952 2.320485,3.2681334 2.4446204,3.0861466 2.7439672,2.6472938 3.2521844,2.2723914 3.8060789,2.0818237 3.9702245,2.0253494 4.5044371,2.0236466 22.057872,2.0236466 h 18.082699 l 0.255109,0.1233681 c 0.692197,0.3347393 1.136141,0.7738556 1.428278,1.412748 0.180213,0.3941197 0.172681,0.080691 0.172681,7.1866143 0,6.586095 -0.0057,6.952069 -0.11225,7.254171 -0.104943,0.297442 -0.33409,0.630429 -0.654093,0.950502 -0.298657,0.298726 -0.342425,0.330022 -0.721119,0.515625 l -0.403163,0.197597 -13.131683,0.0079 -13.131683,0.0079 -1.821009,2.070202 c -3.0262253,3.440346 -3.7166703,4.210828 -3.7734122,4.210828 -0.010505,0 -0.1695396,-0.516797 -0.35341,-1.148438 z"
    id="path886" inkscape:connector-curvature="0" />
  <path style="fill:#ffffff;stroke-width:0.03125"
    d="M 8.1919078,25.843959 C 8.1435165,25.661523 6.9225815,21.465117 6.6939812,20.695522 6.4254003,19.791329 6.420419,19.779526 6.2982709,19.757858 6.2440922,19.748247 5.7146081,19.71979 5.1216393,19.694621 4.5286706,19.669451 3.9732018,19.633178 3.8872643,19.614015 3.10294,19.439115 2.2891799,18.640651 2.0677035,17.828655 2.0182994,17.647525 2.013611,17.129118 2.0044642,10.836147 l -0.00988,-6.7968754 0.067586,-0.1875 C 2.3836959,2.9597909 2.9621553,2.372176 3.8037552,2.0826232 3.9709889,2.0250864 4.4167957,2.0236466 22.064725,2.0236466 h 18.089552 l 0.257119,0.1291641 c 0.385103,0.1934571 0.576731,0.325196 0.830065,0.5706469 0.233466,0.2262008 0.437416,0.5190159 0.582497,0.8363051 0.180213,0.3941197 0.172681,0.080691 0.172681,7.1866143 0,4.453092 -0.01069,6.625638 -0.03363,6.831295 -0.05981,0.536402 -0.249243,0.892093 -0.73099,1.372573 -0.297922,0.297141 -0.343625,0.329784 -0.721885,0.515625 l -0.403825,0.198402 -13.130947,0.0079 -13.130947,0.0079 -1.009329,1.148327 c -3.7584773,4.276074 -4.5242051,5.132703 -4.588047,5.132703 -0.013229,0 -0.03804,-0.05274 -0.055136,-0.117188 z"
    id="path888" inkscape:connector-curvature="0" />
  <path style="fill:#ffffff;stroke-width:0.03125"
    d="M 8.1916359,25.843959 C 8.1400747,25.651258 6.8838156,21.340688 6.67753,20.648647 6.446615,19.873978 6.4211628,19.810297 6.3283537,19.775011 6.28833,19.759794 5.7578678,19.72517 5.149549,19.698069 4.5412299,19.670967 3.9732018,19.633129 3.8872643,19.613983 3.668575,19.565262 3.3073027,19.393949 3.0797557,19.23107 2.85937,19.073316 2.555536,18.764198 2.4072828,18.546901 2.2703623,18.346214 2.0994934,17.980167 2.0536255,17.789272 2.0251701,17.670844 2.0134802,15.987723 2.0053335,10.836147 l -0.010748,-6.7968754 0.067586,-0.1875 C 2.3621254,3.0196323 2.8650199,2.4748483 3.6528893,2.1285521 l 0.203125,-0.08928 18.1488497,-0.00792 18.14885,-0.00792 0.28865,0.1448018 c 0.382,0.1916309 0.527753,0.2919594 0.783594,0.5393768 0.248938,0.2407448 0.420303,0.47979 0.57015,0.7953248 0.212256,0.4469489 0.200531,0.022066 0.200531,7.2664655 0,4.320274 -0.01101,6.642976 -0.03231,6.817563 -0.04183,0.342794 -0.09267,0.493476 -0.268988,0.797236 -0.09991,0.17212 -0.242496,0.3465 -0.462562,0.565705 -0.299184,0.298012 -0.343038,0.329188 -0.736291,0.523438 L 40.07833,19.679897 H 26.962887 13.847443 l -1.917589,2.179352 c -2.9615325,3.3658 -3.6217153,4.101898 -3.6788609,4.101898 -0.015401,0 -0.042112,-0.05274 -0.059357,-0.117188 z"
    id="path890" inkscape:connector-curvature="0" />
  <path style="fill:#ffffff;stroke-width:0.03125"
    d="M 8.1766965,25.797084 C 7.1004212,22.072004 6.4849631,19.995894 6.41931,19.868935 6.3604818,19.755174 6.3586925,19.754947 5.0435143,19.694278 c -0.55,-0.02537 -1.0703125,-0.06165 -1.15625,-0.08062 C 3.8013268,19.594692 3.6277917,19.531851 3.5016307,19.474014 2.8358816,19.168811 2.2719829,18.528157 2.0670573,17.844175 2.0168765,17.676686 2.0124717,17.195245 2.0032248,10.867397 1.9958439,5.8164675 2.0025142,4.0384122 2.0291922,3.9455216 2.0971201,3.7090014 2.2540651,3.3825108 2.4221557,3.1280452 2.7183481,2.6796513 3.1551985,2.3318176 3.6893452,2.1190702 L 3.928926,2.0236466 h 18.112606 18.112607 l 0.288438,0.1446953 c 0.381781,0.1915212 0.527572,0.2918824 0.783381,0.5392704 0.242131,0.2341617 0.399466,0.4505852 0.561147,0.7718844 0.222181,0.4415325 0.209562,0.00206 0.209278,7.2897893 -3.12e-4,4.186582 -0.0116,6.650215 -0.03167,6.825457 -0.05859,0.511355 -0.259547,0.883602 -0.730716,1.353554 -0.29489,0.294126 -0.34399,0.329239 -0.731975,0.523437 l -0.415878,0.208163 H 26.967898 13.849657 l -1.903071,2.162697 c -3.0457617,3.461278 -3.635522,4.118553 -3.6955026,4.118553 -0.014842,0 -0.048316,-0.07383 -0.074387,-0.164063 z"
    id="path892" inkscape:connector-curvature="0" />
</svg>